/* XPM */
static char *_bcca1583a3f4a41f12b9759f940040b[] = {
/* columns rows colors chars-per-pixel */
"60 60 76 1 ",
"  c #5A5655",
". c #5A5956",
"X c #5D5C5C",
"o c #625D5B",
"O c #61625C",
"+ c #5E5E60",
"@ c #615F63",
"# c #5F6160",
"$ c #646464",
"% c #696664",
"& c #676865",
"* c #6A6966",
"= c #656569",
"- c #696769",
"; c #666B6C",
": c #6C6C6C",
"> c #716E6D",
", c #6E706F",
"< c #72716E",
"1 c #656E72",
"2 c #6D6E71",
"3 c #716F70",
"4 c #677276",
"5 c #6D7274",
"6 c #747473",
"7 c #797676",
"8 c #767875",
"9 c #7A7976",
"0 c #757679",
"q c #797779",
"w c #75797A",
"e c #7C7C7B",
"r c #817E7E",
"t c #7E807D",
"y c #81817F",
"u c #89867F",
"i c #7E7E81",
"p c #817F81",
"a c #7F8180",
"s c #848483",
"d c #898684",
"f c #868885",
"g c #8A8986",
"h c #868689",
"j c #898789",
"k c #878989",
"l c #8C8C8B",
"z c #908684",
"x c #918C87",
"c c #928E8C",
"v c #8D9087",
"b c #8E908D",
"n c #92918E",
"m c #99928E",
"M c #8D8E91",
"N c #918F91",
"B c #8E9292",
"V c #939393",
"C c #9A9694",
"Z c #969895",
"A c #9A9A96",
"S c #949699",
"D c #999699",
"F c #96999B",
"G c #9B9B9B",
"H c #A49695",
"J c #A19996",
"K c #A09E9C",
"L c #9DA09D",
"P c #A1A19C",
"I c #9A9DA0",
"U c #A19FA1",
"Y c #9FA0A4",
"T c #A2A2A2",
"R c #A4A3A9",
"E c #A7AAA9",
/* pixels */
"ZZD<yAees60e6;hCllyywanblysgCg8ghaVVlVZbbvlSkskDll8:e9e8,*&r",
"lVseVAlsee:2:06nsCAZbdgvbdhlx9dZSMvlklDDSssgdtBjMLe-&:<$$+9e",
"0q&wZCl2sfteV6ilVAAnCnlllgcIRkesFlblBBGTBlsfesGZTT86**8:eide",
"6>:*=gV6seeaN6GGPDZvtgsldsjlGDely8lCZlFSVes:lDkATy66we.sKlw0",
"y>:-Osns6:6dgNVcDlfdewe6jSjlls6d*eslVFMSseeljfwls88ye5&es6:6",
"s:-&esnl9-sVglsdCglge56iSMMBka6FksjFZFnkjepnlSe8ln8eae968gne",
"e6>5yhsssgllCKMhnlcvde6bFBBljIe6MMlllZnsisMDZk<-lGy-:8e=68:l",
"9:66scd8psue68eVbnSVst6lSBIjhNd6SGy=6shdeiSICACl<:688bt-68-<",
"68:&sZngeeys5:=eLGFke<-sZsqGMdk6llds::qVlllZlNVS<$96lA6w<<&e",
"-<<&6xmv11wsse::GbCddeqfIksZ:eV9&98eq6sVGhpysZBc=666qt669=<e",
"$5wegguseie46sotFVlkkl7sstfed6FMeFb>9elDKVesrsl8 X=<6X$6d=66",
"2wegcggud054ee6ykBlldl66*%6lke5Mked$>r7hMZfly6D66d<&:2;eCg-5",
"4dywwnPc5es:s8yejBGFZb:en,-cVl9DGdse&tllGRnlieV:9e+ll66ecgw4",
"16,=yZMf9Ml6-edeMeTGC9:e66wsVlsdnSetySFDGGVVssZeee6ls90egzgs",
"weetcnllalla6llBskdj*o-,:ee6sswsdie<nLVnSAAV6ldVAFVkedreycAm",
"sgglfnDGssdMhleeZFSY<%$-e>-6ldtluye98bBlbZBl:8eeGDfts6eeenJx",
"lslglnVTneeZVa6dVYGs>p9$>6Csy9sea668eybllLYl86qsLBdle60eslCg",
"CAAvCVlRVlMhdssfiDZ::fl6$dAs9,*8j3*weVSjGGbV:96jFSe-wd<$>snc",
"nZnvnmbGsec6<69>$sg8kSVe52tlge-1ss226l9dg6sse9sdZk6qdl66:fsg",
"evlnvvNBMeV<%%n9<998gFsle0$pAs>esep:qdqdlls89qqhSdkeBDlnkdn6",
"elVlsjBVMlVe<9Deets*$qkje6:3gl<0:-:e69aklFsk9>6lSZk8BFee0sDe",
"gclngMSlBss6%>6=6dy=-9cn95ile6q62%63eqhjsSlS::*9bZjdkla0ess9",
"lhsZlljtse<><9<2ieleretfedeseer6:=s68lldDVdd>==:sFlksshi7q:6",
"plsrlteasle<9F:e6:gdd8a0ecs5ielq=egse2cslga0e6:6hBeteeseNq8l",
"eMsehihMdMjdswe:,2666es6ell666ih6sdse:eSelfeah>eFlek6ee8l6sS",
"skiBVNhssbBlBst:<66eqepe658se0wdeyfs9elVeyllbs>:kFkse8&7ae9l",
"%,8dllVclsvgBg0:9l6-26pls2:spie3lVCepslVrellZpysqSFkeenlkle$",
"==ag6pDVVCVZLs%--lbt--60b6$o=26+sUTs:lNGClbDnl68efFd:dZgSLs-",
":0zn5eVldlbVTV=**lGAgs&:d-:6-ek=lUDllsgnZlAGssssssgkllpclSk8",
"gdle8lsye6dZCb66wiACVAn6:5SseslnnGVsV0eClesVtlseee6ie3rlngqd",
"s6>6sd65eegADZl6:-nKsesssweesesGlcVNVpsll3:s8lcseqrq<:eger:w",
"s<:1eygfgnnnDJs6*-gdkdese6:5idrdllNVspssleldeelc966tq6gh0q95",
"d:::wdlnnClllZs,$+=-ALna:lf8qsgdlsgDleMns$ggdsLZV< =:>86e6eq",
"lae6essgClsBcln*#2=eAyC6-se6lZlslepZlerll$pnDgejSp.6:<Ossial",
"MBZdjhMlBtljgnDe;6&VDle-NldBDleNdpNTdsefn$%gheashbdV88glskBB",
"IjdsMMlkjlSSsZnPw665rKnZnyfVb>llllkVSVilq8yllel6eFs6<9nlhZhj",
"FBylllshkfBFVAcdelxtylgZnlgDZpVfisesFVsednysuse9eE9>&2fdssMB",
"BSBlVFVsesglhDd0cswstenle6sDVVDVaddlllies><9:26l>ee6:28fiiSS",
"Skh9llfpdalMSBVVCaw,$9gsyqyDDlDcllGGGdaee0r7-le8lq,s86:eBdah",
"kk:6qyjsdhlNSFRlkSSa-ygld16jIVDVkFCATls6esy8*ysynSdeee9dsrss",
"lS9rdsl6sMllVSSdNSqVjdeug6ssglDcavnZGe:ele:sdwillkk9y:enkFMa",
"lluqBe:eadgldlSVSNMlmdusfdls6cnAgdCZly5CM5e9SSVVlVlSg<0ljkMl",
"de%*ga,8dfbheyllMDlMlsCxlxewsssxssgbgy8qyshjSMlllMlw=6:>VMsl",
"ssqX06e66slVlVVDNCMVcgCmCneeeegieeeAvunydseyBBdlSjddsllgFSds",
"sVGheVcw6rCVlMdljSVDAllssetcgelp6s2nZdHPg$8yZADnvnlddlZcdls6",
"kjllsddjepHces8wxZCKZAn6t86gsadueeylvycllsedlGlnlbnllZGlljle",
"yi,@:sVcVVCcrmcuslcVGcbZK9emdlmt6elVZCAvdsVlulDlt*nZsnVlllln",
"eeq=0sleednc9rcuegd6VgdCAnnsynxgldjdAAZSgssCleilf*lnbDclllsl",
"e623eedjdslV6;ssmcgr=8wyyessecggs6ylGFAGblBkleslnnelVZVncd:6",
"i6fyhlSVlVGs=lpxHJHc-w0tsyls6ssCleeskZCFSSVflSZGlVslBhkssTls",
"lslsllllZZnV6dgNACyJm6e6lfdseysAZlN69SgBMkhkBSVlykZsereVGGBb",
"Cvy9e6hsBCsGl6gsdlaGn16sldicVVlDMkjMlBlkkMljMSkeZsd:3eZDIZfl",
"sdtt0:epllSBlVC$$-ehcseyeallVBllssrhlkBMlVNjMDdsDlsl>-lDVbvf",
"tsgy96660dynFVZ,eclexrey0gVhVZlssdrreMkMZBdMVSMVAG88ss6eVZCv",
"gfVt:2de,VCZZVnbVGGdes0dflBVslSMMd9r:MSss0eGbjbVVGssEBwwfgng",
"glc95tlssnSVDcdnnMjVwedsdlVlsiSBsa<:ahMielsltllhlV9ZDge<tVgg",
"dBGleedl6lgggsflfCfl8eeiqcsrTZFIS9*9VsfGawl6>>lVSVll<6:2:wss",
"lVnG9:e66-666lydZAGV96&51nlsaeBSeeqZBsbAtaGl26VGlnlwXO$X:dGn",
"CFcTc69=:2,tslgvnAZV6we6egy:6eklsyVFlgnAfgFGsaZb:ns<ele=yDAA",
"Blcnnl8ee::ltAClZlsleelesrs9T6sbnelClycggCllkllbhsieyDy6lllV"
};
