/* XPM */
static char *ee19f82cbab843b6a882e6599c828d75[] = {
/* columns rows colors chars-per-pixel */
"60 60 218 2 ",
"   c #994D01",
".  c #9E5709",
"X  c #8D4C1D",
"o  c #85461A",
"O  c #8E5017",
"+  c #8E501F",
"@  c #9D5B1E",
"#  c #9A5616",
"$  c #A45909",
"%  c #AA5C0B",
"&  c #A05409",
"*  c #B15F09",
"=  c #AD5E12",
"-  c #A35D17",
";  c #9D6119",
":  c #A76004",
">  c #AB640D",
",  c #AB660A",
"<  c #B26505",
"1  c #B26C04",
"2  c #B3640C",
"3  c #B26C0D",
"4  c #BB720F",
"5  c #A66316",
"6  c #AC6314",
"7  c #AC6A14",
"8  c #A5631D",
"9  c #AB651C",
"0  c #AD6A1D",
"q  c #B26314",
"w  c #B36B14",
"e  c #BB6D16",
"r  c #B3661A",
"t  c #B46B1C",
"y  c #BB6D1C",
"u  c #AB7219",
"i  c #B67113",
"p  c #BB7415",
"a  c #B5721C",
"s  c #BA741C",
"d  c #BC7A1B",
"f  c #804420",
"g  c #8D4E24",
"h  c #864B23",
"j  c #964F21",
"k  c #945425",
"l  c #9A5422",
"z  c #9B5A24",
"x  c #93542B",
"c  c #975B2C",
"v  c #9C5E2C",
"b  c #945822",
"n  c #9C5D32",
"m  c #A25C22",
"M  c #A25E2A",
"N  c #A85D26",
"B  c #A15C33",
"V  c #9E622D",
"C  c #9D6533",
"Z  c #9C633A",
"A  c #A56324",
"S  c #A96623",
"D  c #AC6B24",
"F  c #A4642C",
"G  c #A8662C",
"H  c #A5692C",
"J  c #AC6C2C",
"K  c #A66B27",
"L  c #B06722",
"P  c #B26D23",
"I  c #BA6C23",
"U  c #B26D2B",
"Y  c #B4672F",
"T  c #A77127",
"R  c #AF7023",
"E  c #AD712C",
"W  c #AE7A2F",
"Q  c #B47224",
"!  c #BB7424",
"~  c #BD7A24",
"^  c #B4732C",
"/  c #BB752B",
"(  c #B67A2C",
")  c #BC7B2C",
"_  c #B57827",
"`  c #A46534",
"'  c #AB6533",
"]  c #A56B33",
"[  c #AC6C34",
"{  c #A4653A",
"}  c #AA653A",
"|  c #A56B3B",
" . c #AB6D3B",
".. c #B16E33",
"X. c #B26E3A",
"o. c #A57136",
"O. c #AD7234",
"+. c #AC723B",
"@. c #AE783C",
"#. c #B37433",
"$. c #BA7534",
"%. c #B57A33",
"&. c #BC7B34",
"*. c #B3743B",
"=. c #BA753C",
"-. c #B57A3C",
";. c #BB7C3B",
":. c #C17417",
">. c #C37A1C",
",. c #C1711A",
"<. c #C17424",
"1. c #C27C24",
"2. c #C17529",
"3. c #C27C2C",
"4. c #C17634",
"5. c #C27D33",
"6. c #CA7C36",
"7. c #C27D3B",
"8. c #C87E3F",
"9. c #9E6E42",
"0. c #996243",
"q. c #A26942",
"w. c #AB6B42",
"e. c #AB6A4C",
"r. c #A36948",
"t. c #B26D40",
"y. c #AD7443",
"u. c #AD7943",
"i. c #A9714C",
"p. c #B47542",
"a. c #BA7542",
"s. c #B47A43",
"d. c #BB7D43",
"f. c #B4744B",
"g. c #B57C4B",
"h. c #BC7C4B",
"j. c #A77051",
"k. c #B67C53",
"l. c #B97D51",
"z. c #B77658",
"x. c #BF7F59",
"c. c #C27E42",
"v. c #C17F4B",
"b. c #B0802E",
"n. c #BE822E",
"m. c #B58137",
"M. c #BE8234",
"N. c #B6813F",
"B. c #BD813C",
"V. c #C28322",
"C. c #C98325",
"Z. c #C3822C",
"A. c #CE8529",
"S. c #C38335",
"D. c #C98534",
"F. c #C78933",
"G. c #CC8B34",
"H. c #C3833C",
"J. c #C9863C",
"K. c #C4893C",
"L. c #CB8B3C",
"P. c #D08F3B",
"I. c #CA903C",
"U. c #B68242",
"Y. c #BD8343",
"T. c #BC8944",
"R. c #B5834A",
"E. c #BC834B",
"W. c #BE8A4B",
"Q. c #B68946",
"!. c #BC8452",
"~. c #BD8953",
"^. c #BD8A5A",
"/. c #BA875A",
"(. c #C38443",
"). c #C98444",
"_. c #C58A44",
"`. c #CB8B44",
"'. c #C3854B",
"]. c #CA864A",
"[. c #C48A4B",
"{. c #CA8C4C",
"}. c #D28F48",
"|. c #D08C45",
" X c #C39145",
".X c #CB9145",
"XX c #C6924D",
"oX c #CC924C",
"OX c #D39246",
"+X c #D1934C",
"@X c #D69B4B",
"#X c #C48652",
"$X c #CA8652",
"%X c #C48C53",
"&X c #CB8D52",
"*X c #C4865A",
"=X c #C68C5B",
"-X c #C98E5A",
";X c #D18C51",
":X c #C69352",
">X c #CB9353",
",X c #CB9956",
"<X c #CC945B",
"1X c #CD995B",
"2X c #D19253",
"3X c #D29953",
"4X c #D1955B",
"5X c #D49A5C",
"6X c #DD9C5C",
"7X c #C59162",
"8X c #CE9561",
"9X c #CF9B61",
"0X c #D29764",
"qX c #D39C63",
"wX c #DA9E6C",
"eX c #D6A165",
"rX c #D8A264",
"tX c #DDA071",
/* pixels */
"u.u.u.u.u.u.s.@.@.o.+.-.o.+.o.u.o.] o.O.O.E [ O.O.H o.@.-.O.O.-.N.U.-.U.W.~.!.~.~.W.~.~.~.R.E.R.R.R.Q.R.R.R.g.s.s.g.Y.s.",
"( &.S.M.H.`.K.&.Q ^ &.S.S.S.).H.}.8.&.&.5.3.! / ( &.H.OX( &.) ) M.B._.`.{.[._._.(.(._.[.[._.XX(.T.XX>XXX`._.B.$.%.( %.%.",
"Q &.S.;.(.7.(.(.-.;.;.(.&X(.[.'.B.(.H.&.&.H.H.(._._.(.(.K B._.(.(. XoX:XoX_.(.B.K.K.B. X[.[.XXW.W.Y.Y.(.B.) P a Q 0 D ^ ",
"#.#.d.Y.h.h.E.#X!.~.E.E.*XR.~.W.U.;.*.-.;.(.Y.(.B.d.;.d.Y.[.'.'.[.R.%X[.Y.Y.(.T.B.m.B.[.XX[.[.[. X&._ Q t > > i w 3 , 7 ",
"R ^ ) &.(.].'.-.O.&X>X{.[.XX,X[.`.M.;.H.H.K.H.H.K.H.&.S.oX_.(.oX:XXX{.[._.'.`.).(.(.(.).E.'.!.Y._.6.) P t t r t I I t t ",
"m.;.B.Y.(.W.Y.s.o.%X:X%XW.%X%XW.W.[.:X,X:X:X:X,X:XXX:X>X,X,XXX,XXX_._.K.B.M.M.&.( S.M.B.B.(.[.s.[._.[.Y.B.(.7.;.;.H.;.;.",
"*.O.+.o.| ` | | C | | ` C C C | ] ` C | y.| V | *.+.O.+.| +.+.y.+.u.@.@.+.+.O.+.O.-.-.s.s.s.u.| u.+.s.y.y.s.y.p.u.u.p.u.",
";.*...[ *.=.=.[ #.*.'.].'.d.a.a.d.>X%XY.R.d.-.>XoX].).(.`.{.XX[.(.{.#X'.].`.].].(.H.H.).(.;.7.7.*.d.(.=.*.Y.;.d.N.;.;.-.",
";.$.&.5.5.5.4.) 7.).S.(.{.{.{.'.!.w.] '.B.B.`.`.`.oX`.{.{..X`..X[.{.;.J J.M.S.S.J.J.L.`._.(.(.[.=.{ n g ` ;.&.^ ;.7.;.=.",
"7.&./ &.) &.&.&.7.S.(.(.[.[.W.R.y.| ` d.Y.(._.{.B.(.'.{.:X>XXX<X-Xp.} *.B.7.H.7.;.;.(.[.[.[.Y.'.h. .' p.d.d.X.v.'.a.} a.",
"H.$.#.#.^ -.H.7.^ ..B.(.].{.[.(.;.&X{.].;.c.8.(.{.).7.).{.).(.(.v.d.(.[.(.'.'.(.[.].{.{.[.(.S.[.0X~.~.{ { c [ -.c.*.G X.",
"%.;.'.-.J ;.+X`.H.5.7.&.7.J.D.5./ ).].].=.7.c.].).).c.).).c.).;X$X=.;.).$.$.&.5.S.S.7.;.6.7.c.].B.&X#X{ o v  .d.;.(.7.;.",
"` ` | } ` { +. .[ ] F F ` ] U O.[ o.K V b C ] ] F H [ O.O.O.-.R.+.C ] y.Z 9.i.k.k.y.Z c ] u.O.[ J J J M F ' +.G G G D J ",
"0 ^ ^ ^ m.;.( m.m.B.-.U.U.-.N.T.Y.(._.Y.Y.(.[.;.U.Y.B.B.(._._.K.`.H.H.B.`.`.K.H.( ) S.&.3.~ Q / / ! ! 7./ U P ^ ( R ^ S ",
"0 ) S.K.L.L.I.@X.XK.F.I.I.L.`.+XL.F.Z.Z.G.G.P.G.D.L.L.D.S.F.G.G.C.d 1.G.Z.Z.L.I.G.Z.d i i 3 < 1 1 1 3 d p i 3 d ~ Q ( S ",
"#.U ) D.Z._ ) D.~ 7 i p :.e e e ! Z.~ d V.V.C.Z.G.D.D.S.D.G.Z.C.1.~ Q ) ~ M.F.L.L.~ d d p 2 , e t ! a d s a a s ! P ^ ^ ",
"-.;.H.;.M.&.M.) ~ t i e e 2 % % w F.D.S.H.F.K.K.K..X{.:X[.&X>X&X+XL.n.b.Z.D.J.3.3.! 1.! ~ 3.! Q _ _ S.S.S.&.&.&.) &.&.;.",
"%.( H.H.m.B.S.) n.~ 3.~ ! 7 > > a F._.[.:X,XqXqX:X[.>XW.W.%X1X9X<X5X+XB.D.`.{.S.! s d ~ n.S.Z.&._.{.[._.Y.B.B.B.;.B.&.&.",
"^ E J E ^ %.#.( E ^ ^ ^ P ^ Q ^ B.B.B.K.K.B.T.[.Q.@.9.9.R.U.W.N.R.Q.T.T.T.T.W.[.U.s.-.m.%.W b.( m.m.-.%.%.%.%.O.O.%.O.E ",
"*.*.+.f.p.p.w.f.s.s.h.E.d.d.d.(.;.;.;.-.;.B.Y.s.-.s.i.f.w.p. .u.w.q.q.w.y.s.E.'.[.$X/.z.e.e.g.h.(.(.Y.Y.s.-.*.*.*.+. .*.",
"$.;.$.;.#.G Y.(.B._._..XH.M.n.S.S.5.5.3.F.F.S.H.&.).' ' M X.7.a.t.B t.t...#.S.D.S.S.=.X.' ' 7.5.H.S.H.$.U D #.$.=.$.#...",
"$.$.J J ..G (.(.[._.H.K.K.D.S.S.&.S.5.) 5.S.S.`.[.p.{ n z - - 4.#.S $.S.&.5.J.J.J.H.S.&./ ) S.5.Z.) 1.( ! / ) 4.S.8.$.U ",
"$.&.#.$.(.;.-.;.;.S.S.&.&.&./ D Q $.#.H T T.%X[.{.H.#.$.=.U $.)./ I s s s 3.5.6.2.! ! ! / / / $.5.) / U / =.=...=.X...' ",
"%.$.(.{.{.Y.#.[ ^ d.H.$./ ^ ;.$.d.X. .[ #.(._.Y.(.(.d.' ..$.7.8.7.&.P ;...' B l.v.-.c.(.7.7.2.5.7.5.7.$.U / 7.7...U #.$.",
"^ A ] p.@.| C ` +.+.G F F { { { g h x { w.} +.}  .Z C c n { { } }  .` | x X z p.d.Y.B.B.;.;.*.#...=.p.] G `  .*.F F F [ ",
"-.+.*.X.[ X...] ..X.[ [ G  .y.} { | } t.*.*.+.+.+. .g.g.k.k.a.g.i.j.0.r.j.k.l.!.E.d.s.*.*...*.a.=.=.=.*.p.=.a.*.*.*.*.*.",
"%.B.H.3./ <.<.2.2.J.K.Y._.(.[.>X%X2X2X{.oX+XoX2X<X<X5X9XeXeXrXrX9X9X*X&X4X6X+X7./ ^ Q / / &.&.7.S.&.&.S.S.S.S.B.H.H.M.S.",
"d.d.(.4.I I I 6.c.c.#X*Xq.f x f.h.#X&X;X2X2X{.&X<X-X-X-X8X8X8X-X>X<X[.[.[.{.(.(.`.(.Y.(.W.%X%X%XW.E.'.[.W.E.W.'.W.d.d.-.",
"-.;.;.S.6.! s 5.`.2X<X<X*Xg.i.f.#X'.[.{.{.;X2X2X&X&X!.E.!.*X$X'.&X{.].].;.$.$.7.c.c.c.].].#X#X'.Y.(.[.[.(.Y.(.Y.Y.;.-.-.",
"' } #.#.7.5.S..X3X>X,X5X<X4X5X4X2X`.`.`.H.H.`.{.&X&X[.'.'.&X&X-XeXqXqX8X[.'.Y.-.;.c.].].'.'.'.d.(.(.H.H.-.;.;.;.;.*.*.=.",
"k C } [ *.*.O.-.;.;.E.Y.'.'.'.d.d.d.;.d.;.=.-.d.E.p.| n c | h.*X=X^.%X%X$X:X$X%X'.#Xh.a.*.X.#.#.*.O.o.O.[ [ [ [ ] ` V F ",
"g.p.*.o.o.X.] ] ] '  . .z z @.d.+.p.=.*.*.a.d.#XE.k.k.g.i.R.k.#X!.R.E.~.~.!.!.^.7X7X^./.^.^./.^.^.R.!.~.!.g.g.g.g.g.g.u.",
"H.&.H.(.;.;.(.H.(.{.{.`.(.$.(.oX_.`.3XoXoX[.0XtXwX0X5X3XoXoXOX&X<X<XqX&X>X4X,X<X1X<X5X<X<X:X<X4X-X&X$X#X].'.{.{.d.U $.S.",
"H.;.8.c.7.;.7.;.).].).).8.(.`.{.(.(. X{.Y.o.W.8X<X&X&X>X{.[.&X&X{.>X>X[.XX4X4X<X4X<X<X%X[.[.[.[.E.d.*.R.s.d.d.'.d.H ` #.",
"*.*.-.Y.'.[.(.'.(.[.(.(.H.(.`.(.oXoXoXoX{._.XXXX{.{.XX2X>X&X#X#X'.).(.7.H.;.&.&._.).H.(.[.>X[.[.*.-.-.].*...[ =.'.p.X.} ",
"-.Y.(.Y.#.#.%.B.S.H.H.S.5.S.D.&.).+X2X+X`.{.{.(.XX{.`.oX{.'.].'.v.#X'.).H.&.5.J.&.H.B.'.$X#Xp.+.;.(.(._.(.;.;.;.(.H.(.;.",
"*.*.] J G J J #.$.$.$.$.^ &.&.U 9 ^ $.(.$...#.;.&.%.&.&.S.;.&.( ;.Y.].-.*.J #.;.#.p.+.*.u.s.@.@.O...#.[ #.J #.[ $...J E ",
"%.#.E *.;.*.J G G J D J - U D D S A z M l j z M G [ ..=.7.7.#.P L / 2.P D P U ^ U $.$.$.$.;.;.;.U.-.d.-.O.o.-.-.-.+.O.+.",
"6 t ~ 3.3.I P ! / 3.2.) t / / / Q ( &.&.( U Q R Q ( ( ) S.F.) ) s :.>.4 4 p 4 p p >.C.C.A.C.1.1.<.<.<.2.2.! ! I r I I I ",
"9 S ^ &.&.P ^ $.U #.#.U U $.$.7.&.7.-.;.s.=.;.;.&.$.;.d.(.d.;.S.J.5.P.J.OX2X2X2X<X'.(.;.$.U P t D L ) ^ ^ Q / P 5 9 0 Q ",
"s 7 a F.Z.5.M.S.H.&.^ H.{.(.(._.{.[.T.B.H.m.&.M.5.5.7.( ;.#.;.;.).&.&.S.( Z.3.! t = % q * 2 < < 7 s P r r t ! ! 7 , 7 ~ ",
"5 _ M.M.( n.K.L.5.D.3.5.4.4.$.7.I <.s s <.s q = 2 y y <.2./ Z./ D.1.1.! d Z.~ ! / 6.&.D P ) 1.! / ! P t y ! P 6 7 7 Q 6 ",
"K [ -.;.B.M.( Q 7 w 7 > $ & &   % % % % % r 7 q q q = r r w Q a t 9 5 5 P &.&...-.p.Y.s.-.+.J K ; ; 8 S 9 8 A M @ z A F ",
"J O.*.d.(.&.&.;.7.7.7.8.c.X...m ^ &.K.(.H.(.(.;.=.#.(.7./ / 5.D._.`.`.`.H.7.H.'.Y.d.'.;.[ ..D F G H [ #.^ ^ ( ^ $.A O v ",
"u M.F.M.M.b.S..XL.H.D.S.7.7.&.) F.F.oX+X`.{.OXoX;.'.6X}.F.Z.L.}..X.X}.`.(.B.(.&X(.;.(.$.J $.4.4.L U I t r t t 6 - # # J ",
"O.T.W.:XXX[.(.(.{.].S.5.5.5.J.D.D.J.).}.{.`.(.Y.{.<X6X+XL.Z.G.D.G.J.H.S.(.].{.(.#.G D 9 $.U ..4.N Y 4.2.e w , : , . a ^ ",
"K O.H [.`.(.B.H.S.H.S.D.|.`.J.5.S.H.H.K.oX2XXX>X,X,XXX+X.XZ.3.t e 1.D.L..X@X+X7./ t = & ! P I Q ^ ^ Q P P P I Q U 8 ( P ",
"J U m c.K.K.S.S.S.G.G.L..X`..XoXI.OXI.L.+X5X5X1XoX.X.X.X|.D.<.,.e ! S.`.+X,XoX7.S.3.<.,.s y ! ! ) ) / / 2.! t t 9 D t 9 ",
"z j X M ` H J o.-.Y.%.-.*.o.d.X.*.O.+.*.p.g.h.-.*.*.%.#.;.#.#...U U ..=.a.p.E.s.+.#.H S S U ..U G G F G G A @ # @ @ @ @ ",
"S D S #.O.*.-.d.s.h.s.g.p.h.g.g.{ Z | | +.R.^.=X7X<X<X>X[.Y.;.d.d.p.v.$X'.#XY.=.=.#.D D S 5 5 D D 9 9 9 9 A G S U S S 8 ",
"_ _ R &.&.).B.-.#.;.H.;.H.;.;.[.d.p.#X#XE.$X&X4X-X'.#X&X'.].(.c.d.'.'.{.$.U $.;.4.4.=.$.;.$.U 9 / ^ Q / ^ D D P ^ ^ ^ P ",
"*.;.d.d.d.d.;.;.H.(.&.^ $.E 5.$.'.&X&X .z p.*XE.'.E.[.4X0X0X=X*X*Xf.g.p.p.} X.a.c.a.=.;.c.).7.$.U U ^ $.$.%.$.$.#.$.#.#.",
"*.*.;.;.#.#.^ -.&.$.&.;.*.*.'.h.h.$Xl.` k } h.*.-.Y.H.(.[.[.d.d.(.*.| + v f.!.h.s.s.;.H.;.( U $.;.=.-.;.-.*.O.*.U.-.d.d.",
"E E J K ^ ^ ( ) ) &.H.U.*.z j v [ -.d.(.(.-.H.7.$.;.$.#.;.7.$.&.( ^ E '.%X!.g.R.E.Y.-.O.J A G [ *.+.*.+.o.[ ] @.+.@.o.+.",
"] ] ] G J G O.*.*.-.*.+.s.} c | @.R.U.U.B.N.N.*.O.J O.[ *.d.s.*.+. . .` w.g.y.p.o.p.*.+.+.+.@.+.[  .o.o.] H ] ] V H H ] ",
"E ^ %.;.U.O.N.(.(.N.-.W.N.s.s.s.s.U.s.Y.:X4X2XoX`.M.&.( &.;.(.(.Y.'.#.S %.^ S.) ) B.Y.Y.(.R.R.%XW.s.-.-.U.U.N.-.-.@.-.-.",
"(.H.H.B.( ;.&.&.&.S.H.H.S.&.&.;.H. X(.T.T.oX.XF.F.S.H.B.&.H._.H.K._.]._.H.S.(.'.*X8X,X>X[.:X<X<X<X:X>X:X:X>X-X:X%X'.%XE.",
";.;.(.*.H $.;.(.B.;.%.;.;.;.H.(.K.(.(.[.(.Y.m.5.( &.H.S.%.$.B._._._._.`.`.`.{.[.&X<X[.[.XX>X{.&X{.Y.'.W.Y.Y.Y.d.s.-.;.*.",
"J J %.Y.%.#.J *.-.(.(.(.(.-.-.;.B.;.;.Y.B.;.&.B.&.&.H.(.;.-.d.(.J S J #.;.5.7.c.s.d.-.;.&.%.;.;.;.;.;.#.#.;.#.#.#...#.S ",
"O.J [ [ O.O.H O...*.d.*.*.J #.#.%.&.;.B.#.%.$.$.&.$.$.;.7.d.Y.d.+.[ =.d.M.^ $.;.[ d.;.;.#.^ &.&.#.J #.$.O.$...J U O.#.J "
};
