/* XPM */
static char *_cedeefd5ef246c9a4632210fc42ca78[] = {
/* columns rows colors chars-per-pixel */
"60 60 228 2 ",
"   c #5E3539",
".  c #572E32",
"X  c #6C332E",
"o  c #75362D",
"O  c #6E3936",
"+  c #643B3C",
"@  c #6C3C3D",
"#  c #693636",
"$  c #723532",
"%  c #743A34",
"&  c #7B3B34",
"*  c #723D3C",
"=  c #7B3E3A",
"-  c #783731",
";  c #6B413E",
":  c #73413E",
">  c #7C423D",
",  c #7E4135",
"<  c #5F3E42",
"1  c #643E42",
"2  c #6B3E42",
"3  c #723E41",
"4  c #37505D",
"5  c #5A5458",
"6  c #504D53",
"7  c #644245",
"8  c #6C4344",
"9  c #6D4549",
"0  c #6D4A4C",
"q  c #674749",
"w  c #734444",
"e  c #7C4443",
"r  c #734845",
"t  c #7A4A46",
"y  c #73464A",
"u  c #7B4649",
"i  c #744A4B",
"p  c #7C4B4B",
"a  c #69524F",
"s  c #7C514B",
"d  c #75514C",
"f  c #744E52",
"g  c #7B4E52",
"h  c #6D5353",
"j  c #67585A",
"k  c #745354",
"l  c #7C5454",
"z  c #745957",
"x  c #745459",
"c  c #7A555A",
"v  c #745C5C",
"b  c #7C5B5C",
"n  c #7E5B57",
"m  c #6E4950",
"M  c #7B625C",
"N  c #69615F",
"B  c #4F5862",
"V  c #6C5E63",
"C  c #755E61",
"Z  c #5D656B",
"A  c #6B6364",
"S  c #736464",
"D  c #7C6364",
"F  c #7C6A66",
"G  c #756B6C",
"H  c #7B6C6C",
"J  c #766768",
"K  c #7C6E72",
"L  c #746E70",
"P  c #7C7373",
"I  c #7C7A7C",
"U  c #757575",
"Y  c #707170",
"T  c #843A2F",
"R  c #823D34",
"E  c #853E38",
"W  c #834136",
"Q  c #84443B",
"!  c #8B453C",
"~  c #88493E",
"^  c #91473C",
"/  c #834643",
"(  c #8A4642",
")  c #844944",
"_  c #8C4B44",
"`  c #834C4B",
"'  c #8A4D4B",
"]  c #924C44",
"[  c #944E49",
"{  c #84524C",
"}  c #8C534A",
"|  c #885549",
" . c #92544D",
".. c #91574B",
"X. c #845352",
"o. c #8B5453",
"O. c #855B55",
"+. c #8D5B55",
"@. c #845C5B",
"#. c #8D5C5B",
"$. c #875658",
"%. c #935453",
"&. c #935B57",
"*. c #884E51",
"=. c #84635D",
"-. c #8C635D",
";. c #8C6557",
":. c #93635B",
">. c #87604F",
",. c #846463",
"<. c #8C6463",
"1. c #856A65",
"2. c #8C6C66",
"3. c #846C6B",
"4. c #8B6C6B",
"5. c #84656A",
"6. c #936563",
"7. c #936B64",
"8. c #936D6B",
"9. c #9A6B68",
"0. c #84726D",
"q. c #8B726D",
"w. c #93736D",
"e. c #9C756C",
"r. c #98776B",
"t. c #8B6E72",
"y. c #856D72",
"u. c #946E71",
"i. c #847373",
"p. c #8C7373",
"a. c #8C7974",
"s. c #8C7679",
"d. c #847B7B",
"f. c #8C7B7B",
"g. c #837776",
"h. c #937473",
"j. c #9B7573",
"k. c #947975",
"l. c #9A7B74",
"z. c #947679",
"x. c #9C7679",
"c. c #937B7C",
"v. c #9A7C7C",
"b. c #A37C7D",
"n. c #A67A78",
"m. c #875F60",
"M. c #8D817C",
"N. c #85817F",
"B. c #94817C",
"V. c #99837D",
"C. c #91887F",
"Z. c #A3857E",
"A. c #B2827E",
"S. c #777F89",
"D. c #857C81",
"F. c #8D7E82",
"G. c #947E82",
"H. c #9B7D82",
"J. c #927780",
"K. c #A57D81",
"L. c #7B868A",
"P. c #768C95",
"I. c #8D8383",
"U. c #89878A",
"Y. c #948383",
"T. c #9B8483",
"R. c #958985",
"E. c #9C8A86",
"W. c #948589",
"Q. c #9C868A",
"!. c #958B8C",
"~. c #9C8B8C",
"^. c #9C908D",
"/. c #96928F",
"(. c #888D94",
"). c #968D92",
"_. c #9C8D91",
"`. c #938790",
"'. c #8C9397",
"]. c #9C9393",
"[. c #989698",
"{. c #A48383",
"}. c #A38B85",
"|. c #A28589",
" X c #A38C8C",
".X c #AB8C8C",
"XX c #A98784",
"oX c #A4918D",
"OX c #AC948C",
"+X c #A38E91",
"@X c #AA8F91",
"#X c #A08F99",
"$X c #A49394",
"%X c #AC9493",
"&X c #AC9A96",
"*X c #A49599",
"=X c #A49B9B",
"-X c #AB9C9B",
";X c #A69896",
":X c #B29B9A",
">X c #B39897",
",X c #B28F8D",
"<X c #A9A29F",
"1X c #B1A19C",
"2X c #9A9EA1",
"3X c #8E9CA5",
"4X c #A89EA1",
"5X c #9DA3A6",
"6X c #ACA3A3",
"7X c #ACAAAC",
"8X c #A7A4A7",
"9X c #B3A3A2",
"0X c #B3ABAD",
"qX c #B8AAA9",
"wX c #B8B1AD",
"eX c #B4AEB2",
"rX c #ABB3B6",
"tX c #B4B3B4",
"yX c #BBB4B3",
"uX c #B9B8BA",
"iX c #AAADB2",
"pX c #C3BCBC",
"aX c #C2C1BF",
"sX c #B8BCC1",
"dX c #C1BFC2",
"fX c #BEC6C8",
"gX c #C5C6C8",
"hX c #D2D0D3",
/* pixels */
"k.h.;X8Xt.f.H H g.K H K d.3.).8Xd.Y.Y.I.!.R.R.R./.F.$X;X-.:.:.r.:.7.;.7.l.7.}.Q.5.i.z.5.5.s.t.t.t.5._.].,.F D D D p.p.q.",
"i y ,.f.8 9 9 9 7 7 y 0 g y y.J.8 f 0 0 0 7 7 q i 9 1.a.) +.+...&.+.+.+.:.| b.D 8 w i 9 y 9 9 y i w p.z.* i w : : w r w ",
"p : =.c.y y 9 8 8 9 i g l y 3.s.8 i i 9 8 ; ; q i 8 1.w.~ t 1 8 9 8 7 8 i + k.i.2 2 i 7 2 8 2 9 i @ s.G.$ : : ; * * : w ",
"V.i.R.<XG.Y.G.F.G.F.G.W._.s.].4Xi.s.f.s.i.0.P g.d.3.^.=XZ.}.W.U.F.Y.I.Y.E.R.7XyXW._.*X)._.~.~.!.!.~.tX8Xf.f.f.c.f.c.f.c.",
"f.P P i.Y.W.Y.Y.uX4XT.Q. X|.~.;X$X~.E.T.8XOXZ.oXoXR.H 3.r.j.j.x.wXV.j.h.h.h.u.6.8.w.j.h.&X].v.Y.T.V.v.a.c.v.z.h.6XW.i.f.",
"9 i 8 0 9 k k 7 R.,.w e w w w r w i i w R.;.: 8 8 w 9 i ) t / ' <Xl O % % O % * * * * X 4.k # = w : w @ * w w * T.5.9 i ",
"8 9 7 8 8 9 0 ; E.@.w w w ; : w w i r w E.:.# + + + ; w / / e ' <Xs ; * * O O % * : : X Z.l O w e w w 9 w w w 3 ~.D 8 0 ",
"f.f.I.f.f.f.I.d.8X].c.B.c.B.a.V.c.a.c.p.7X}.B.k.f.M.W.~.~. XT.$XgXB.k.V.v.v.v.H.v.c.h.8.yXE.q.c.c.c.c.c.f.c.H.B.0X].Y.R.",
"E.c.0XqXOXOX>X1X1X&XOXOX&XOXwXyX6X-X=X;X$X].$X;X;X~.0X:XG.T.G.Q.H.Q.T.T.W.H.=X9XH.{.T.Q.v.{.Q.T.$X_.4X9X|._.~.~.T.R.~. X",
";   i.9.O : : @ O @ 8 ; : ; Z.1.1 9 w 8 2 8 w i r 2 f.8.8 g g g g g i 2 m 2 4.h.* w : : * 3 3 3 y 3 5.3.2 8 8 1 @ @ @ + ",
"; + 0.e.Q p { { | ~ { { ~ ) XX5.2 y w 8 + 8 u i p 2 f.4.2 g p g g w 7 9 y y t.z.w w w w : @ 2 y i w h.p.8 8 8 8 8 8 8 + ",
"p.q.=XZ.r.r.r.l.B.B.B.r.B.l.9X$X4.3.i.i.4.p.f.f.f.p.<X1X_.$X~.~.Q.W.~.~.H.Q.4X0X}.|.V.|.|.Y.T.W.Q.G.6X].p.f.s.f.c.s.s.s.",
"tX-X4X$X_.6XtX XoX;X$X7XwX@X&X&X:XyXwX-X6XqX9XgX*XQ. X|.+X4XyXx.{. X{.qXuXf.Q.Y.c.6XpXQ.+X@X@X-XyXb.Z.{. X:XpX X X.XOX&X",
"p.@ 9 9 @ t._.# ; w @ ,.u.X > w $ c.<.@ w y @ -Xb @ 8 w @ ,.oX- = = o <.4X. 1 1   5.-X@ g g u m.{.Q / / R &.v.o & > - ) ",
"s.y g f y p.W.2 t i 8 5.h.% e e % T.4.3 u p e -Xx 3 y y 2 ,. X& / e - b.=X. 7 2 # C +Xw g l p @.T.Q ' _ ! 6.^.- Q ) W } ",
"U.C C F D !.6XD 1.5.D Q.*X,.4.2.p.uX|.5.3.1.,.uX].p.p.p.p.$XyXv.T.T.w.qXsXM.I.f.s.$X7Xs.z.f.p.G.6Xl.h.3.<.v.uX1.<.,.O.8.",
"=X-X0X0X:X%X9X:X>X>X:X:X:X%XwX-X-X1X%XoX X$X}.oX%X%XyX9XV.{.{.|.T. X|.T.{.T.$X&X}.oX~.~.!.].].].@X+X7XqX-X-X9X9X-X&X-X-X",
"c X. X9.[ %.%.%.%.%.%. .%. .%X$.t t u ` p p p { p } {.<.= e > : : e > > : % 4.7.8 7 7 + < 7 8 ; 9 + t.r.k 0 8 0 0 i i h ",
"k l Z.9.' %.%. .%.%.%.%.%.%.@X#.' o.O.$.X.X.} $.&.{ }.6.> e e e / e e / ) = 8.r.9 1 7 + < 8 2 y f 2 h.k.k 0 m 0 7 8 9 m ",
"f.4.;XQ.6.j.h.8.8.u.8.9.e.u.=Xv.4.4.8.3.<.i.h.k.h.4.<X~.h.h.p.i.3.t.4.p.z.q.^.;Xf.g.i.L J K K i.i.y.].E.k.p.k.i.q.4.p.p.",
"}. X;X%X;X X;X@X0X~.Q.T.T.~.$X}. X X}.T.0XQ.E.].~.E.@XOX.XOX,XXXwXOXb.XX{.XXXX.XOX%X%XXXyX-X{.Q.|.@X+X~.~._.Q.T.4X;X@X+X",
"~ ~ ( ( _ ( ( / T.` Q Q Q Q E R W Q Q }  Xw * e u e ) ! E R E T n.&.W ! W W W W W Q Q T b.<.= e w > = > e > e * p.o.( ) ",
"/ Q ) _ ( ) ' ( W.} Q Q Q Q E E Q ~ ! ..~.i w r s t ) ~ W ! ! E 7.+.! ~ ! ! ! ! ! ! ! T {.<.& Q > e / / u e e = z.&.( _ ",
"4.4.p.u.h.2.4.4.6Xr.7.4.e.h.h.4.3.2.2.V.7X3.3.4.1.3.h.h.e.j.j.e.-X Xj.e.w.j.7.2.w.h.r.w.4XY.p.i.4.4.,.D 5.,.,.y.[.H.h.c.",
" XQ.*X8X`.].).`.).).).).4X`.2X7X*X-X%X*X>X9X9X>X%XZ.:X0X.X%X%X>X%X%X%X%X X{.7X4X.X%X,X%X@X,X%X>X%XXX4X2XT.W.G..XQ.T._.Q.",
"= - $.F.< 1 < < 1 7 1 1 1 1 C 5./ X.*.u ` ` X.%.%.= 8.v.) O.+.o.%.$.&.#.#.' -Xx.E [ [ ] [ ] ] [ [ ^ j.c.% e u * % % = = ",
"> = O.F.< q q < q 7 7 7 q < V t.` $.$.X.X.$.o.o.$.e h.v.{ ,.#.m.#.<.#.<.6.o.6Xx.^ [ _ ] ] _ ] [ [ E x.v.- / : * > e = e ",
"4.1.V.[.V K J L G G G L K K 8XW.t.s.u.t.t.t.h.x.h.h. X].t.p.4.i.p.i.i.f.f.i.iX-Xn.l.h.j.8.8.w.h.w.<.6X;Xb 3.,.,.3.3.4.4.",
"D.f.G.F.D.F.D.D.rX_.t.z.z.h.v.z.z.h.h.u.4XW.5.i.4.3.i.h.8.9.9.6.$X~.,.4.t.z.u.j.z.z.z.u.).=X5.t.s.z.t.p.t.y.3.5.).).d.U.",
"V j C V j j 5 6 '.5.3 u e u u t u u ` w c.C ; w w w i i } *.%.' b.z.u X.` p w u ` ` X.u H.f.O i 9 8 9 8 y 8 9 @ 5.K x j ",
"h h j j 5 V 5 B 3Xz.* ` ` u t u w u ` > f.b * e : : i i ` ` ` / K.p.3 u y u w u u u g 3 K.c.# w 2 2 9 8 8 9 8 + 3.H a a ",
"Y.W.).W.`.(.L.L.rX*Xf.d.P f.d.g.f.g.P 0.[.].0.i.p.f._.]. X|.Q.T.qXeX*X4X;X;X=X+X_._.$XQ.uXuX~.]._.].~.F.G.Y.W.f.[.).d.I.",
"a.i.uXK.<.9.6.9.6.6.7.q.8.j.].h.2.7.7.9.9.j.9.:.9.2.yXj.7.7.:.9.9.e.e.n.j.9.wXH.u.n.K.{.K.K.K.K.b.b.7Xz.h.z.l.h.h.h.p.p.",
"s d 7X+.R = = / Q Q > > > R v.o.Q ( ( ( ^ ( _ } } _ 7Xo.W Q Q E W W R R , & @X@.p ` ` ` X.` p ` ` ` Q.m.o.#.O.O.l s p { ",
"a q 7XX.Q ) = = = = > > > - a.{ Q ~ ~ ! ~ , ) _ [ O.7X} & R & - & T T R > o |.$.u ` ` ` ` p ` u u p _.n { l l l z 0 h h ",
"=X[.gXtX4X6X<X-X-X6X-X$X=X=XtX9X$X$X$XE.;X<X-X].6XtXgX9X^.oXOX&X&X&X:X$X&X$XeX-X_.~.].+X$X@XQ.~.@X%XpX8X=X[.$X[.]./.].!.",
"U.`.U.`.U.sXH.J.H.H.|.dXv.c.z.H.v.tXv.p.h.{.|.gXv.x.f.J.-XhXl.b.b.n.b.pXn.A.b.n.,XfXK.x.z.x.u.7X].h.j.x.x.0X3XS.U.L.S.iX",
"5 a 5 B B ).$.f m 2 f 4X8 # O * @ ].i * * % : =Xt e 5 7 $.wXO X o - Q :X^ ^ ] ~  .tXX.w * e * $Xx # 8 8 # U.Z 6 B 4 4 (.",
"5 5 j 5 B (.$.y g w l =X@ @ * * w ).@ # % # : ].e : a 7 $.wX$ # - o W >X[ ^ ] ! %.pXX.= : : O ~.k + 2 w @ y.B 5 B 4 4 P.",
"[.'.U.(.P.rX[.`.U.W.].sX$X~.Y.I.f.tX!.T.Y.Y.!.uX~.].(.!.$XgXV.a.B.l.B.yX1XOXE.}.;XgX6X;X;X=X^.eXR.P P P d.2XL.L.L.P.P.rX",
"|.H.7X_.H.c.v.H.H.H.T.z.K.H.tX+XT.G.Q.T.H.Q.T.G._.H.eX=XH.c.H.H.H.G.G.J.H.#XtX{.K.z.K.K.{.K.K.n.v.v.rXs.h.u.z.z.H.H.b.x.",
"3 @ ).g O ; @ @ * 3 : w 3 @ !.i ; 8 7 2 ; 2 ; ; @ 2 6Xx 2 2 1 1 + + + 2 + x ].= e / e e : e e e / / 0Xg 3 y 8 w w w y y ",
"3 y [.g % : 3 : w : @ : * * `.9 w 8 8 8 8 9 w w y 9 0Xc 2 8 8 2 2 8 ; 8 2 b [.Q ~ > ) / / e / e / / eX9 2 ; * w @ 2 w 3 ",
"i.K 5XP D H F H 3.P 3.F P H 2XI H L L H H K G S J G rXP S J G K P P G K H D.8X0.3.H 3.i.3.f.s.p.i.f.rXU.I.U.I.I P d.d.d.",
"J.f.s.Q.~.W.W.W.7Xv.j.x.h.l.h.v.c.c.v.B.2Xg.g.K P I 0.G H K P g.'.P D.F.Y.Y.Y.Y.I.G.I.E.uXT.Z.K.T.v.b.K.{.b.n.Z.eXf.c.J.",
"8 8 9 8 8 r 0 0 !.> Q e Q > > > , > & t _.h g x x x x b k l l x S.k @.b z l l s s { { s =X! Q Q Q Q / > Q Q , Q ~.7 8 8 ",
"8 w w 7 8 i 8 0 ~./ ~ ~ ~ ) ~ Q ( Q > ` ).k x x x c c C x x f k I h @.D b @.O.o.+.+.+.s -X~ ^ ( ) ~ ( ) / ~ ~ _ $X; 8 w ",
"P P Y Y J G G P [.i.g.P 0.1.0.0.M F F f.2XL P L K U G A V J D.d.U.J H H 0.F H H M F 1.F [.1.F 1.1.0.a.0.a.p.F ,.[.P U U ",
"/.;.=.q.r.a.2X0.i.0.0.0.U.S K K S U.[.w.2.q.q.M.'.f.1.M x Y.c.#.=.,.O.4Xc.+.=.n l Y.Y.=.=.M @.R.R.<.2.=.<.].'.z h G F g.",
"V.Q ( ~ W } !.r r r : s i.w i 9 2 v a.E Q Q W d F w ) p 9 ].<.e { { ` ;X-.= = / & c.h.Q ' ` = 4.1.> ' ) > h.I.; i 0 8 l ",
"T.~  ._ ~ &.).t u p u $.c.y i i y C K ! } _ W | p.y ` ) 9 0Xt.= / ` ' Q.<.e / / & c.w./ ' } e m.1./ ' ' > f.Y.2 7 i y k ",
"I z k a z v (.C v F v g.[.Y Y V V U.(.z h M n a.(.J J S S 8X7XU.U.D.A (.`.P G A D /.U.H H 0.F U.I.y.F F j I L.N Z N A Y ",
"V S U Y G Y J K P I P Y I I L.U.M.M.Y.g.Y N.C.R.Y.M.I.U.2.w.h.k.h.k.w.r.k.h.a./.h.h.p.h.3.4.4.i.p.q.g.U.H H F H G G K P ",
"m 9 C F.k c x x x m x x z 0 F q.: 8 ; : ; ; 8 r ; + n p.~ } _ ) Q ~ / } _ _ #.T./ ( / / ` ) ) ) ` e o.i.7 0 7 0 0 9 0 0 ",
"f 9 b g.m x l b c C c c c k 3.0.> r @ @ +   ; w 8 @ X.i.Q ( / / ) _ ( _ _ _ :.G._ *.' ` ' ( ) / ) ) X.P 2 9 8 8 8 y i i ",
"5 j d.U.y.K V V j V A V A C L.[.C.C.Y.M.M.M.M.a.f.0.R.].k.V.T.V.k.B.f.p.h.4.M./.F 3.t.i.g.g.p.i.i.i.d.'.S S G G G S j 5 ",
"F a.M.B.V.V.M.a.I P 2.0.a.a.B.B.C.C.^.C.[.8XM.Y.M.Y.R.T.Y.Y.B.!.5Xp.h.8.p.8.5.m.,.,.<.9.[.c.e.e.e.e.e.r.e.l.n.l.[.N.H P ",
"=.O.s | >.>.7.;.M.7.| d s t r r : d d > E.,.@ @ w r 8 w 8 w ; k $X` ' ) ' ` ` t o.' ' ' Y.;.+.o.%... .....| | ^ B.N a M ",
"n >.>.>.=.O.-.;.M.7.| d i r r r d r s s ^.1.w r r i r r i w i b *X` ` ` ` / ` u ` p e ` E.;...+.......} | | ..~ C.N a M ",
"B.R.C.V.R.R.V.a./.C.k.r.q.w.h.q.2.2.2.2.].H d h h x z z h z z D 9XT.Y.G.Q.G.T.Q.Y.c.f.f.<XB.h.k.k.a.c.w.0.0.M.0.<XC.N.C."
};
