/* XPM */
static char *result[] = {
/* columns rows colors chars-per-pixel */
"60 60 138 2 ",
"   c black",
".  c #141619",
"X  c #191B1E",
"o  c #2C230E",
"O  c #3F2E05",
"+  c #3B2D0D",
"@  c #2E2615",
"#  c #342917",
"$  c #382B11",
"%  c #322B1D",
"&  c #392E1C",
"*  c #3C311E",
"=  c #1C1E21",
"-  c #1F2124",
";  c #212326",
":  c #2C2821",
">  c #24262A",
",  c #27292D",
"<  c #282B2F",
"1  c #342E24",
"2  c #382F21",
"3  c #322F2A",
"4  c #373026",
"5  c #3C3325",
"6  c #33302C",
"7  c #3C352A",
"8  c #3F382C",
"9  c #2A2D31",
"0  c #2E3136",
"q  c #313335",
"w  c #393736",
"e  c #3B3A37",
"r  c #33363B",
"t  c #35393E",
"y  c #3C3B3B",
"u  c #4E3200",
"i  c #453317",
"p  c #44351E",
"a  c #4B3519",
"s  c #543815",
"d  c #433624",
"f  c #483725",
"g  c #443827",
"h  c #4C3A25",
"j  c #40372A",
"k  c #423A2C",
"l  c #4C3D2D",
"z  c #523E2C",
"x  c #583F28",
"c  c #443C33",
"v  c #4B3E31",
"b  c #413E3D",
"n  c #53402E",
"m  c #5D432D",
"M  c #444037",
"N  c #4E4033",
"B  c #44403D",
"V  c #4E423A",
"C  c #524336",
"Z  c #5F4836",
"A  c #544539",
"S  c #5A473A",
"D  c #5C493C",
"F  c #604834",
"G  c #604B3D",
"H  c #373B40",
"J  c #3A3D43",
"K  c #3D4146",
"L  c #3F4348",
"P  c #434344",
"I  c #4C4643",
"U  c #4C4946",
"Y  c #42454B",
"T  c #45494E",
"R  c #4C4B4C",
"E  c #554B46",
"W  c #5F4E44",
"Q  c #514E4D",
"!  c #594E4A",
"~  c #56504E",
"^  c #464B51",
"/  c #494D53",
"(  c #4C5056",
")  c #4E535A",
"_  c #545254",
"`  c #5F5654",
"'  c #51555C",
"]  c #5A5759",
"[  c #54585F",
"{  c #5A5A5D",
"}  c #624D40",
"|  c #684F43",
" . c #675246",
".. c #6B5245",
"X. c #63534D",
"o. c #6A544A",
"O. c #715445",
"+. c #735648",
"@. c #625652",
"#. c #645955",
"$. c #645C5C",
"%. c #6B5E5A",
"&. c #555A62",
"*. c #595E65",
"=. c #565F69",
"-. c #5A5F68",
";. c #5C6067",
":. c #5D626A",
">. c #5E6671",
",. c #636265",
"<. c #61666E",
"1. c #6D6768",
"2. c #63686F",
"3. c #616770",
"4. c #656B73",
"5. c #696E76",
"6. c #676E78",
"7. c #696F78",
"8. c #6C7077",
"9. c #6C727B",
"0. c #70767E",
"q. c #6F7781",
"w. c #717780",
"e. c #747B84",
"r. c #787B83",
"t. c #767E89",
"y. c #787F89",
"u. c #7C828C",
"i. c #7F8691",
"p. c #808791",
"a. c #838A95",
"s. c #868E98",
"d. c #8B929D",
"f. c #8E95A1",
"g. c #9098A4",
"h. c #979FAB",
"j. c #99A1AE",
"k. c #9EA6B3",
/* pixels */
"t.y.9.* C N D G N C C C C C C C C C C C C k 5 v C C C v l k ' 4.u.e.9.5.w.&.X 9 9 9 9 < T 3.5.&.-.' ) ^ ^ ^ ' &.&.<.5.r.",
"t.5.5.( g v G D C C C C A C v C C C C C C k 5 v C A v k 8 ' 3.e.w.5.0.5.y.4.q < 9 9 < T <.5.' -./ ^ ( ' &.<.<.<.<.3.<.6.",
"4.9.9.:.( g S S V C C C C C C v v C C C N j 7 N v l 8 T -.-.*.P h l h c ^ 2.&.t 0 9 T 3.5.' <.' ) &.*.<.:.:.-.-.-.-.=.=.",
"( 5.t.8.3.T C D N C A C C C C N N C C A N 7 7 g c c &.6.w.R z v k 8 8 w $ R 6.&.Y ^ 3.4.&.<.-.<.<.<.:.&.' ' / / ( ( / ( ",
"^ ) 4.0.e.' h D N C C C C C C C C C C v k 5 c M ] 5.e.0.I v k k g 8 7 8 8 4 2.9.y.9.4.[ -.&.[ [ [ [ [ &.&.&.&.&.&.&.&.&.",
"/ ^ ) 4.q.2.& N S C C C v C C C C C C j 1 c / 3.u.w.*.f v k k k k 8 5 8 7 @ P a.k.w.' :.( T ^ ^ T T ^ ^ ^ ^ T T / Y Y / ",
"/ ^ ^ ) 7.e.[ k v C C C C C C C A C * 4 ^ ) <.w.5.Q d k 8 k k k k k 3 7 8 % K g.a.&.*.) ^ / / / ^ ^ / / / / / / / / / / ",
"/ / / ^ / 9.0.R c v C S C C C v 5 5 P _ <.e.9.*.l h c k k k k 7 k k 1 7 8 @ U s.u.:.( ^ / / ^ / / / / / ^ / / ^ / / / / ",
"/ / / / K ;.y.3.( c N C C C d d Y ' 9.e.w.5._ g v c 8 k k k 8 4 k 8 4 4 7 o T a.q.( / ^ / ^ ^ / / ^ / / / / / ^ / / ^ / ",
"/ / / ^ K -.y.0.4.( 8 * 5 j K T :.e.y.6.&.C h N 8 j k k 8 k k k k k 5 1 4 6 ^ i.q.[ ( ^ / ^ / ^ / / / / / / / / / / / / ",
"/ / / ^ Y -.9.q.y.5.( T T P Y -.e.y.:.V l l c g k v g k k k 8 5 k k 8 : % r ;.u.6.&.( ^ ^ ^ / ^ / / / ^ T / / / / / / Y ",
"/ / / ( K / 9.5.:.*.' ;.4.a.s.p.0.<.S l N k l k k k 8 k k 8 8 1 k k 8 4 % b :.i.9.' / / / ^ ^ / / / / ^ Y T / ^ ^ Y / / ",
"^ / ( L J 6.w.-.) ) ' / :.g.d.s.:.V g v k k v c 8 k k 8 8 k 8 1 k k 8 : o R 4.t.8.) / / / / / / / / / ^ / / ^ Y Y ^ / / ",
"/ / L J 5.t.:.) ' ' ' ^ Y 9.s.y.C l c C 8 k l k 8 k k k k k k 1 k k 8 1 6 ) 9.y.6.&./ / ^ / ^ / ^ / / / / / / T ^ Y / / ",
"/ L J 4.t.9.&.) ' ' ' ^ T T <.' C k C l 8 j k k k k k k k k 4 1 k k 7 % w ;.w.u.6.' ^ / ^ / / / / / / / / / Y Y ^ Y / ^ ",
"L K 4.t.w.5.-.) ' ) ' Y ^ ) ^ :.C k N 8 l c 8 8 k k k 8 k 8 5 1 k 8 4 @ y 6.t.t.;.^ / / / / / / / ^ / / ^ / / / / / Y H ",
"K 4.-.K / 5.>.) ) &.( K ) ' :.:.l k v k k k k k k k k k k k 1 1 k 8 4 o ) $.s { &.^ ^ ( / / / / ^ ^ / ^ / / / / ^ T H J ",
"2.&.P z c / 4.;.( ) L J ) ' ' 7.A l c g k 8 8 k k 8 8 k k 8 1 5 8 4 @ R $.n C U :.) Y ^ / ^ / ^ / ^ / / / / ^ Y K r J ^ ",
"-.P C v k j :.8.^ Y L K ) ) ) ;.4.l N 8 k k k k k 8 k k k 4 1 4 % : ) ,.u N N O ' 4.) K ^ ^ / / / / ^ ^ T K r t 0 J L 3.",
"P z v 8 k * y 9.3.J ) Y ) ' ) / e.T g 8 k 8 k k k k k k 5 1 : @ w ;.t.0.U U U M 5.u.:./ J J L L L L K J r r J J K ) 9.;.",
"N v 8 g k 8 1 ;.q.) ( T ( ) ) T 5.3.4 c g k k 8 k k k 8 1 % 3 P &.>.9.9.8.:.:.4.a.d.y.2./ K 0 r r r r t t K K J ) 8.9.P ",
"v 8 k k k k # R 9.:.^ K ) ) ) r 4.e.T 5 c 8 k 8 k k 8 @ 3 r ) :.&.^ T L T ^ L :.u.g.j.u.9.[ P J Y L L L K H J ) 5.7.P v ",
"8 k k v k 8 4 U 9.e.-.L ) ) T J 3.u.3.4 8 8 k k 8 8 % K ( 8.4.&.T L K r K J K K -.a.d.d.t.0.' Y r K K K r J ) 5.t.P l N ",
"k 8 k 8 k 5 8 4 &.u.0.K ^ / ^ 0 4.w.w.Y @ 7 7 7 4 % 6 ' q.0.&./ K K K r J K L K t 4.u.y.;.4.0.[ L 0 r r K ) 5.0.&.V l 8 ",
"k l k k k 8 7 * P 5.w.:.t t r ;.t.u.u.4.: 2 : o q y Y 9.4.' / P T L K K J t L t t :.9.3.^ L 4.0.' T T K ^ 8.w.&.P N g 8 ",
"k N v 8 k 8 4 8 y 4.s.9.&.' :.u.;.%.$.>.' r P R / 3.t.3.( / K K T T t t L t K r T :.9.;.T T T 4.w.8.q.u.t.w.;.B k 8 g 8 ",
"8 k k N g 7 5 8 q 8.t.i.0.8.6.#.S n n V ] :.&.2.0.e.3.) / K K K L L K t L t t 0 T :.4.^ T T T ^ 9.u.d.s.e.7.( f k k k k ",
"k 8 k k 8 1 7 j q 9.9.9.9.8.W n A N C C l ,.u.9.0.:.( / L K K Y K K t r L K r K &.8.&.) L T T T &.6.0.8.:.;.V j k k N k ",
"k k k k 8 4 8 5 P :.a.q.8.9.;.C C C C A i { t.w.3./ &.Y K K K K K K H r L H 0 T 4.t.e.>.;.:.:.:.:.6.e.2.' &.R d 8 N N v ",
"k 8 k k 7 1 7 2 P 8.u.5.' ;.e.e.n C N N + *.u.2.) ^ ) L J K K K K K K r L K , ' ;.! o. . . ... ...D M D ` >.~ d 8 l v v ",
"k 8 k 8 4 4 5 y ' e.5.' &.' :.t.w.l M * I q.5.) / Y ) / J K K K K L t r L t K 5.#.m G C C C C C C N k A a 8.,.+ c 8 k k ",
"k k k 8 4 2 y &.3.2.' &.' ) ' :.y.t.<.' 6.q.) / K L ) / K K K K K K q r L 9 T :.@.n G C N C C C C N c S a { _ p k v k k ",
"k k k 8 % y &.:.9.2.' &.) ' ' ) :.y.a.u.s.5.T Y J Y ' ^ K K K L K J r H J 9 &.&.o.S S A z v C C C v k A h *._ p k 8 k k ",
"k 8 k % y &.2.9.5.' &.' ) ) ) ' ' -.y.d.d.e.J Y J Y ' / K K K J K J 9 H r ( w.&.| S S S C C A C C N l A h { / & k k k k ",
"g k 4 y &.<.9.u.;.) &.) ) ' ' ' ' ) 3.s.k.u.J K J Y ) / L J J K J J 0 0 H :.q.#.O.S G A C C C C A N k A h { -.y 5 k k 8 ",
"k 5 y &.:.5.e.3.&.&.) &.' ' ) ' ' ( ( 3.d.i./ H Y Y ) ( ^ K L K Y J 0 9 J q.7.E O.S A C C C C C C N N A h _ 8.&.y 8 k k ",
"5 y &.<.8.e.9.&.&.' ) &.' ) ' ' ' / ) / 7.d.-.r J Y ) / ^ J K K J J 9 9 ( w.,.C O.S C C C C C C N l N A h _ w.0.&.y 5 5 ",
"y &.:.t.i.w.:.&.) ) ) ' ' ' ) ' ' ( Y ) :.i.e.Y 0 J &.Y / K J K L J 9 H 3.q.#.z ..} S C C A C C C v A S f / t.p.e.-.y w ",
"&.<.a.f.a.:.' ) ' ) ' ;.' ) ) ' ' ( J ) ' &.6.&.9 r K K / K J K Y J 9 q 6.q.! S ....C C C C C C N C C A f { :.' -.:.;.&.",
"4.t.h.f.8.) ' ) ' &.' ' ' ) &.' ' ) Y T ' ' -.&.Y 9 - H ^ Y K K J H 0 T 6.<.z C } O.S C A C C C v A N C p { Y   X r / ;.",
"K 3.g.a.&.' ' ' ;.-.' ' ' ' ' ' &.( L Y &.) ' ) ^ &.) t t ^ Y J J q t &.w.1.x C S +.S C C C C v C C C A d [ / ; 0 , X t ",
"- - 2.e.) ' ) &.-.&.' ' ' ) ) ' / ' Y K ( ) &.T &.3.' q 9 t t Y K q H 5.i.,.f S C | A C C C C C C C N S p { / = 9 9 ; > ",
"0 . ( 8.( ' ) [ -.[ ) ' ' ' ' ' ) ) Y K / &.( J ( y.a.&.9 q r J J r ' 9.9.4.I z C G } C C C C C C C N S p [ / - 9 9 ; < ",
"- T :.:.) ' ) ) ) ) &.' ) ) ' ) / ) Y J ( ) J H 4.s.d.y.&.9 r H t 0 <.e.4.e.7.I v C G C C C C C v N C A * ] / - 9 ; < 9 ",
"T :.3.;.T ' [ ;.' ) ' ' ) ' ) ) T ) K t / K J ^ 0.-.c T w.&.9 9 , J e.w.' 0 [ 4.Q h v } C C C C l N C g e -.T = 9 ; , 9 ",
":.9.8.6.&.T [ ;.[ ) ' ) ' ' ' ) ^ ) L H J J / :.' c g 2 T w.<.[ &.4.e.) 9 < , ' 6.5.I z C C C C C C g b &.5.T X > ; = = ",
"t.t.9.e.t.&.K ( ' ' ' ' ' ) ' ) ^ ) J q J ( -.' c g c 2 j & T r.y.e.' 9 9 9 9 < ' 5.4.I v C C C C g y &.4.0.y.&.T / / ' ",
"t.4.t.i.a.a.;.L / ' ' ) ' ' ) T ^ ) H H / :.&.c k 8 c 5 k 5 j T u.6.H r 9 9 9 9 < [ 5.w.&.v c v c e &.-./ ) / ' ' *.w.y.",
"8.~ m z ;.a.y.;.J Y ) ) ' ' ) ^ ^ J t ) ;.) c k 8 k k 5 8 7 j b t./ 9 9 9 9 , > 9 < ) w.w.&.c b Y &.5.&.) ) ' ' ' T &.e.",
"m Z V S F h ,.5.&.K H ) ' ) T Y K J ' ' &.c k k k 8 k 5 8 7 & P 9.> 9 9 , , 9 , 9 9 9 ) e.w.&./ ' e.5.^ ' ( ( ' ' T :.y.",
"A N C C V S m S [ &.Y y ( ^ K J K &.&.b V l k k k 7 w 5 8 7 y &.( 0 9 9 , > > 9 9 < 9 9 ) w.w.3.y.a.^ / / &.' ' / T -.5.",
"N N C C A C N S a Q _ K J K J / :.&.c C N k k k k 8 g 7 3 2 / ' 9 9 9 9 9 , = ; , 9 9 9 9 ) w.y.d.9./ ( ( ' ) ) / Y 3.F ",
"C C C N C C N N c l n I J J / ;.' c v C c 8 k k k 5 8 7 4 y &.0 q 9 , , 9 9 , = ; , 9 9 9 9 ( t.e.T &.' &.) &./ T T ] W ",
"C N l N C C N C v v V p / ) ;.&.b l N C k g k 8 c 5 8 5 y &.' r 9 , , , , 9 , > = ; < 9 9 < 9 ) 9.3./ ' ( ' ( ^ Y =.} z ",
"C C C N C C v v k k g y &.-.[ v g k N N k v 8 k k 5 8 4 / 2.t t 9 < , , , , 9 ; = = = , 9 9 < , &.7.&.' &.( T T ( ] S C ",
"C C C C C C k k 8 j y 5.w.w.T k k k N N k k 8 k k 5 2 y ;.R 0 t , 9 , 9 9 9 9 , > = > ; < 9 9 9 , &.:.Y ( / T T ' } C C ",
"C C C C C N v 8 4 y 5.u.u.y.' 5 k k N N 8 k 8 k k 5 y ;.' r < r < 9 9 9 9 9 9 < ; = ; ; ; < 9 9 9 ; / &.J / ' T ! S C C ",
"C A C C C N 8 2 w 8.5./ ' t.:.P g k N N 8 k k k c * T >.K 9 9 t < 9 9 < , < 9 < , ; = , ; ; , 9 9 = r <.&.&./ =.X.z C C ",
"N A C C N N 5 w 6.6.K J J [ e.' j k N N g k k k 5 y ;.^ < < 9 r < 9 9 < > < 9 9 , ; = = < ; ; , 9 > 9 7.4.J -.#.C C C C ",
"C C C C l 4 y 4.u.&.r K K J ' <.5 c v k k k k 5 K ) :.H , 9 9 r < < , 9 < 9 9 9 , ; = = 9 > = ; 9 ; 9 4.y.5.:.@.C C C C "
};
