/* XPM */
static char *result[] = {
/* columns rows colors chars-per-pixel */
"60 60 154 2 ",
"   c black",
".  c #010000",
"X  c #000100",
"o  c #000200",
"O  c #000300",
"+  c #000400",
"@  c #000500",
"#  c #000600",
"$  c #000700",
"%  c #030503",
"&  c #030004",
"*  c #000800",
"=  c #000900",
"-  c #000B00",
";  c #000D00",
":  c #000E00",
">  c #000F00",
",  c #070907",
"<  c #080008",
"1  c #090009",
"2  c #0E000D",
"3  c #0E000E",
"4  c #0A0E09",
"5  c #001100",
"6  c #011300",
"7  c #011500",
"8  c #001600",
"9  c #001700",
"0  c #001800",
"q  c #001A00",
"w  c #021A01",
"e  c #001C00",
"r  c #031F02",
"t  c #0B1C09",
"y  c #120011",
"u  c #002000",
"i  c #002100",
"p  c #012100",
"a  c #002200",
"s  c #002300",
"d  c #012C00",
"f  c #092309",
"g  c #0A2309",
"h  c #0C220B",
"j  c #0C220C",
"k  c #013800",
"l  c #003900",
"z  c #013E00",
"x  c #353235",
"c  c #004700",
"v  c #004900",
"b  c #024A00",
"n  c #024F00",
"m  c #0C4C0A",
"M  c #0C4E0A",
"N  c #134B0E",
"B  c #025400",
"V  c #015700",
"C  c #035700",
"Z  c #015F00",
"A  c #006100",
"S  c #006200",
"D  c #006300",
"F  c #046000",
"G  c #006500",
"H  c #026400",
"J  c #056E00",
"K  c #0C6F07",
"L  c #057B00",
"P  c #007F00",
"I  c #047C00",
"U  c #0D7809",
"Y  c #1A7E16",
"T  c #646364",
"R  c #707170",
"E  c #747574",
"W  c #008100",
"Q  c #10870B",
"!  c #11850D",
"~  c #118F0C",
"^  c #009300",
"/  c #049000",
"(  c #009900",
")  c #009B00",
"_  c #0E910A",
"`  c #0E9408",
"'  c #159012",
"]  c #208C1F",
"[  c #279B1B",
"{  c #00A200",
"}  c #00A900",
"|  c #13A30F",
" . c #00B700",
".. c #00BF00",
"X. c #15B012",
"o. c #1AB017",
"O. c #29A614",
"+. c #069F36",
"@. c #119F36",
"#. c #3B9E2B",
"$. c #3D9E2D",
"%. c #38A038",
"&. c #3BA03A",
"*. c #00CE00",
"=. c #00D000",
"-. c #00D400",
";. c #00DB00",
":. c #28C208",
">. c #27D51A",
",. c #00E100",
"<. c #00F000",
"1. c #00F400",
"2. c #00F900",
"3. c #20C320",
"4. c #30C32D",
"5. c #28D726",
"6. c #30FF2F",
"7. c #37EA35",
"8. c #32FF30",
"9. c #0E9F41",
"0. c #4ADE47",
"q. c #4EE14B",
"w. c #48FF46",
"e. c #4EFF4B",
"r. c #5FF15C",
"t. c #61EE5E",
"y. c #7CCD77",
"u. c #7FF97A",
"i. c #A8EC0E",
"p. c #80FF7C",
"a. c #83FF7F",
"s. c #AAED60",
"d. c #ADE07A",
"f. c #AEFD76",
"g. c #898C89",
"h. c #92D597",
"j. c #8BFF84",
"k. c #8FFF89",
"l. c #94FD97",
"z. c #A5FF9F",
"x. c #A8F9A2",
"c. c #BFFFA2",
"v. c #A6FFB1",
"b. c #A7FFB1",
"n. c #AAFDB0",
"m. c #C0FF90",
"M. c #FFFB9A",
"N. c #C2FFA4",
"B. c #FFFBB9",
"V. c #D2F8D3",
"C. c #D0FFD0",
"Z. c #FAF8D8",
"A. c #F8FDDB",
"S. c #FFF8EC",
/* pixels */
"                                                    o %   T x T   , X                                                   ",
"                                                X *   &   E g.R   1   @ X                                               ",
"                                              @     0 s w c A v r u >     +                                             ",
"                                            $   6 d F L / _ ! U I J C p q   *                                           ",
"                                          = @ . H ` o.3.>.5.:.O.[ ] Y K B 8   =                                         ",
"                                        #   . S | ..<.2.1.1.,.*.} ^ P A N l     @                                       ",
"                                      O O 5 Z X.;.7.u.l.f.n.i.s.d.h.y.4. .' V :   o                                     ",
"                                      ;   n ~ -.e.a.x.V.Z.S.M.B.A.C.z.p.w.=.Q b   -                                     ",
"                                      #   z m { q.r.8.k.b.m.N.c.v.j.6.t.0.) M k   @                                     ",
"                                        #     t G W ) &.#.9.+.@.$.%.( P D 4     @                                       ",
"                                          O 7   1 3 y               y 2 <   7 o                                         ",
"                                              = 9 e a g j h h h j f i e 8 $                                             ",
"                                                                                                                        ",
"                                                                                                                        ",
"                                                                                                                        ",
"                                                                                                                        ",
"                                                                                                                        ",
"                                                                                                                        ",
"                                                                                                                        ",
"                                                                                                                        ",
"                                                                                                                        ",
"                                                                                                                        ",
"                                                                                                                        ",
"                                                                                                                        ",
"                                                                                                                        ",
"                                                                                                                        ",
"                                                                                                                        ",
"                                                                                                                        ",
"                                                                                                                        ",
"                                                                                                                        ",
"                                                                                                                        ",
"                                                                                                                        ",
"                                                                                                                        ",
"                                                                                                                        ",
"                                                                                                                        ",
"                                                                                                                        ",
"                                                                                                                        ",
"                                                                                                                        ",
"                                                                                                                        ",
"                                                                                                                        ",
"                                                                                                                        ",
"                                                                                                                        ",
"                                                                                                                        ",
"                                                                                                                        ",
"                                                                                                                        ",
"                                                                                                                        ",
"                                                                                                                        ",
"                                                                                                                        ",
"                                                                                                                        ",
"                                                                                                                        ",
"                                                                                                                        ",
"                                                                                                                        ",
"                                                                                                                        ",
"                                                                                                                        ",
"                                                                                                                        ",
"                                                                                                                        ",
"                                                                                                                        ",
"                                                                                                                        ",
"                                                                                                                        ",
"                                                                                                                        "
};
