/* XPM */
static char *_aa4ab26fad64c30d8831b85dfcc4c09[] = {
/* columns rows colors chars-per-pixel */
"60 60 61 1 ",
"  c black",
". c #060606",
"X c #090909",
"o c #0E0E0E",
"O c #131313",
"+ c #161616",
"@ c #1B1B1B",
"# c gray11",
"$ c #222222",
"% c #272727",
"& c #282828",
"* c #2C2C2C",
"= c gray19",
"- c #353535",
"; c gray23",
": c #3C3C3C",
"> c gray25",
", c gray28",
"< c #484848",
"1 c gray31",
"2 c gray32",
"3 c #555555",
"4 c #585858",
"5 c gray37",
"6 c gray38",
"7 c #676767",
"8 c DimGray",
"9 c #6C6C6C",
"0 c #717171",
"q c gray46",
"w c #797979",
"e c #7C7C7C",
"r c #818181",
"t c #848484",
"y c #898989",
"u c gray56",
"i c #939393",
"p c #979797",
"a c gray60",
"s c #9F9F9F",
"d c gray64",
"f c gray65",
"g c gray66",
"h c #AEAEAE",
"j c gray69",
"k c #B4B4B4",
"l c gray73",
"z c #BCBCBC",
"x c gray76",
"c c #C5C5C5",
"v c gray79",
"b c gray81",
"n c gray82",
"m c gray84",
"M c #DADADA",
"N c gray87",
"B c gray89",
"V c #E7E7E7",
"C c #E9E9E9",
"Z c #EEEEEE",
"A c #F4F4F4",
/* pixels */
"&;&;*-==-&,>2>1>1>2>1,,<1:%:=,,<,1,<,,;=-&;$-%-$-&-==-=;*;&;",
"323222235@lVBBnBmBBNmNMNCr whlbvbbvclzi7*:<<<>,<<,<222112131",
"332354544 cMxbzbmnxmczmbs>$evkygwututse&**9sdadfseq6:,11><2<",
"gfsfsii8;%cmxkvjlzkclhxh6-+sbfuddgafas6,&*emVNNmNcvkfffffffg",
"bbnvhdt4<+vMfgagifffsajy4-*0jipuddgayq5,&=qmmjjjxMmvbmzvvbzv",
"fadafiq2< mmdsjdgadasyha5*-=aisgedpps1<<&*enlsaaupiieuipysti",
"lsigay9,> mVftasgiiiiisi7*-<4iphsgasd1=>**wMjaauipuiftafdyss",
"hgsdue<>* ccpdashaurpife2=%<<0srq78eq>-===wNbsaytdrtfaiappui",
"idpur<<;*&aMlphyauiyuydq8, :2-2@&-;$#>&@:,,vMuaruiipufaijdpi",
"eqww11,-%;eMgdairuisuddr7<@=,:%=**@ @   :4*zkidifipu0tery8yq",
"5543>&%$*:5bjupeqthpyyyr51#-<>&=22qyriiw<2:lawy0e96751,,,1,<",
"**$$-&&**2@nnyuuppysa0ss8:%;>7ascMBbmxy9-1>pw752,1>->>>=:=:=",
"#=$=O==*;1-smpfrradyipyt5:%$=dlNmlfhgdq3+;:<,,>:::>-#$$@$@$@",
";:;:-;;;;<,echyfpeyywdd72,$-;gMzgyyyrp0:%-&X=O$;@*=&:;-;-;-;",
"1,--;;:=&2<5xidaifssiast45%#>gZftidaaay*&->3342$<,>,,>,>>>,:",
"sspspaid9 3-lzairsiqiuie54=+>gCrphspfi0;&=7gNb1,5ydaaddpsdss",
"bxbbcbji2@1,rjpgirpyif9rr2&@>gvhfridpa7,&Odncd.1pnMNNmMNNnNm",
"fiidifu86X<17agrgsyaqr485<*+>gxfy8883,3<= vvfrX3hMxhhhjjfhhj",
"gipasit84@;3:ut9677:5445>&@$&at7t5*-----*-mkiy.2jmssspspieii",
"hysdigi4,$:3131231:,;%  @$%%&q7%  . X@+&@<mkhtX3hcpapiaatrpy",
"dspuati5,%-2*       o@&;&#O  >3274>,3<$;-tNkatO1dzyddaapatpa",
"ua7qpdy3,%=<sggauqw4;%237qwuizzxvvzzde:*4zNgpq+2pxdtaiiaw0yu",
"yrduusq3>*XsNMcxljfy,<4pnmmmvmNmnmMMl9,%7mcss9@<plafsasiaysu",
"sgadatw<>; nlyrssiapo26cCxxfhdagjgdsy2;%0Nlts5$>wgqt8qw0uysu",
"et8wt52:>; cksgpgig8*<7mntdyrfaatsayy<-*5Vxas2%1=51><>13<597",
"3<3>,:%*=* vfgssgut:;<5Nzasaspaeifupy>:&7Vffi1%3&o%=*==&*:><",
"*%$#X #@$1 bjsrhaf92&>6Nzrguaeuwuyaf9<:*5Vkft2&3:::-=-@&##%&",
">535ttwwy8 bxqppftr4*=4Mnyuywyeidwuai;:&7Vhdf1&4*@-<12323:-=",
"7ilMmMbblu vzdteadw5**6vbsyfif0ruwad0,=%0nsug2o4kMxs92,:,>,2",
"8jnvckhfhr Nhageihi5--3lnkyuwiwrfpdr0>=&9mkui2 emedbBnmMNd:2",
"0Njhaisaar Nkdigfus4:=$sBzfsufyfqeda41*&0bdfu1 eMwihayfstt,1",
"0mhupdspaa Mkrsfufr6,+;eBvdsiuruqufe6:*-qbjfu3 qMfstshusa7;>",
"qNdasihiar bldgypad3,%,4Mbfidyupudpa,-*-qbfid2 0vaajaedaf0-,",
"qMgdpppfa0 cbeiugfy41 >,jbjutauidyiw1*$;0vss,1 9cdfdsdydg8-,",
"0mjagsspdr gVusdtii5<.::umzyfysypwq2<*=>6uq-;-=2fuysrip9a9-;",
"qNhfsasadq pMupuaia6<o=<6shy94>-@=@=-&=:2==<,11>2#*=:-=>->-;",
"qMftddaaaw qnjrjayp5,O$1>702>;=#*$=O%$=<24<,2211%=*%$%%$%+%;",
"0mkdupfaf0%>Nhsstfu4>+%><; =%%%;>-:-;;=:114644445654433424>,",
"qBfaduasyw- Vhuetdi6,X&;25555555565758q90rpifsfafpsdddgdju:2",
"0bhssspdr*- Bltdtuu61&#*5fggsgshhdffffhjcbNNVVCVVVVCMmmnlw*<",
"0nhsfijaq%; Vdsiiup41*$#3zvCCCVCMNZNBZVCACCVBbvnMbcmnxbvu4#1",
"9xksadia9%: mkgwfui32*$o4lvcmbmvblnblnnvxlgfsifpgtydsadgr3::",
"6xtsde9w8*;@vaifuft62*$@1dMzpuyippduhsuidgfiqpuggyisphsiq3&;",
"2lfgse24>+:*hhrpfir8<*#*XgBzuyufuauddrifhuaiaiyryspdpsadr3:;",
"<erw3534;*>=idfrit871*#* aNmhgtiuyrypspysderigrpfyqttupie4&;",
"<;$@-313:=>>q85776621=#& ibMargpfrpfrqustfafuuftyepradqe04%;",
"22<:&o#o*:::;;--;--;;*@% 0vlfuufyfrupuyparftueiuuigtrpyr05%-",
",25343,-o%,:;$#&#$%#$$%$%9u7786860dihpyrwuuwuiftfyaaruyaw3%-",
"<ikzckhp757<;$+& o=O&*===1,:;$-#=#286eeqqqqqq00q9q00q0q081&;",
"1jvbbvBMccfe0086561<,;>;-2,>=*;:>;&,<,,<,<,<,<,<,,>,,,,><#-:",
"<kndsaxcbmmcvcvcbxxllhfdue0q0q6,1:;-::=-*;#*&*%+$@$##$#$&&:>",
"<lNdshpuasjbcvcvcvbvnccvccbcczt,1<:$  ::>,=%;-,:,:,>>>::>><1",
"1jbssardauqsqipt0sa9ywfiglvxxdq&,13uki<  X,<<%        o&>322",
"1jvgffyadidksyaawipipafadushd83+,*rmcnvzjs521izkjzzkjhpt6:12",
"2hse0r60yweyeq9yq00wrteetqtte62*-XuMplbnbc0<7Mxvczxlxzgfxa-1",
"2a6:,:1<;<:::,<;,,<>,:>>:,>;>,,;$ rcjzgwps9,dltsrdftiaaulyO2",
",2=$$%#%$$%$%$@%#%$$%$$%$%%$$%$%+&4779w7907>Mdsdghagfahai4O3",
"2:=-*%=.**X-$+-#-+%=o**o=&O-#@=$=&>,>#&=***:w8679758777754%2",
"3322,,<<<<<>;;:;;;;;-;;;;;-:;;;;:->433,=---;:1O@X+$OO@O@#&@3",
"::::::::::::;:;:;;;;;;;;;;:::;;::::::::::::::;;;;;-;;-;-;-;:"
};
