/* XPM */
static char *_8abbc89be384f38d00fc66afe991301[] = {
/* columns rows colors chars-per-pixel */
"60 60 99 2 ",
"   c #270808",
".  c #2D0D0D",
"X  c #340D0D",
"o  c #3A0D0D",
"O  c #361010",
"+  c #3A1110",
"@  c #351C1D",
"#  c #391F1F",
"$  c #3D2323",
"%  c #3E2828",
"&  c #451313",
"*  c #4D1616",
"=  c #511717",
"-  c #591716",
";  c #541817",
":  c #5A1817",
">  c #551718",
",  c #551818",
"<  c #5C1C1B",
"1  c #631E1B",
"2  c #5F201D",
"3  c #64211E",
"4  c #6D221E",
"5  c #422424",
"6  c #492626",
"7  c #442C2C",
"8  c #482D2D",
"9  c #552626",
"0  c #582626",
"q  c #562E2E",
"w  c #5C2C2C",
"e  c #4B3232",
"r  c #513636",
"t  c #5E3333",
"y  c #523D3D",
"u  c #672220",
"i  c #622F2D",
"p  c #63312F",
"a  c #653332",
"s  c #6B3533",
"d  c #6E3937",
"f  c #643B39",
"g  c #6D3B39",
"h  c #713634",
"j  c #723836",
"k  c #743C39",
"l  c #72433F",
"z  c #554F4F",
"x  c #5B5555",
"c  c #5F5A5A",
"v  c #61504F",
"b  c #655454",
"n  c #655D5D",
"m  c #6B5E5D",
"M  c #6C605F",
"N  c #71605F",
"B  c #666060",
"V  c #6B6464",
"C  c #6C6867",
"Z  c #676868",
"A  c #6D6A6A",
"S  c #736363",
"D  c #7A6766",
"F  c #7C6967",
"G  c #726A6A",
"H  c #7C6B6B",
"J  c #6F7171",
"K  c #757171",
"L  c #797272",
"P  c #7D7E7E",
"I  c #816F6E",
"U  c #82706F",
"Y  c #837171",
"T  c #8B7776",
"R  c #887877",
"E  c #847C7D",
"W  c #8C7B7B",
"Q  c #917E7E",
"!  c #92807F",
"~  c #7F8080",
"^  c #848282",
"/  c #8B8585",
"(  c #878888",
")  c #8B8B8B",
"_  c #938281",
"`  c #998786",
"'  c #948E8E",
"]  c #9D8B8A",
"[  c #8F9090",
"{  c #929393",
"}  c #999292",
"|  c #969898",
" . c #999B9B",
".. c #A18F8E",
"X. c #A5A7A7",
"o. c #A7A9A9",
"O. c #ADAFAF",
"+. c #B4B6B6",
"@. c #B7B8B8",
/* pixels */
"P ~ ! ( ) | |  . . . . .X. . .| { | { [ { [ { { { { } { { { { [ ' { [ [ { { [ { { { | o.+.+.@.+.O.X.X.X.o.X.X.| [ ) ) / ",
"n M I I L Y T T T T T T T Q T Y U U U U I I I I I I U I I U I I I I Y Y Y Y I H I I Y Q ] ] ] ` _ Q Q Q Q W R Y I H P P ",
"@ 6 s k h j j j h h j d j j j h h s s s s p a a s p s p p p p p p a s s s i i i i i a s s s s d d s s a a p a a i f m J ",
"  o 3 4 1 1 1 1 1 1 1 1 1 1 1 1 1 < 1 1 1 1 : , = = - - ; = = ; - - > : - > = * = - - > = = = > - - - * = = = - = 0 v Z ",
". + 2 3 1 2 3 < < < < < 2 , < 0 < < < 2 2 < , = * = * * = * ; ; , , > , , , * * = > > * * * * , - = * * * = = * = 0 v Z ",
". & 3 u < : < : < < < , , < = , , ; , < < < , * * = * * * * * * , = = = * * * * * = = * * & * = = * * & * * * * = 9 v A ",
"O & 2 3 2 = * * = = = = , , , , ; * ; ; : : , , , = * * * * * * , , * * * * * * = = = * * * * = * * * * * * * * = 0 b J ",
"O & 2 2 2 ; * * = = * * = = , * * * * ; , , , , , , ; * * * * * * * * * * , , * = * * * * = = * ; * * * * * & * * 9 b J ",
". + 2 u 2 ; * ; * * * * * , * * * = = = , , , < , = ; * * * * * * * , , * * * , , * * * , * , * * ; = = * * * * & 9 b K ",
"O & u u 2 , ; * * = ; ; , , * & * * = > , = , , , , ; ; * * * * * * * * , , , , , , * , * , * * * = ; = * * & * & 0 B P ",
". & 0 4 < * ; * * = = , , , , & * * = , = = = = , < * * * = ; = * * * * * , , , * , , , , * * * = = = = * * * * = 0 S P ",
". + 2 2 , , * * * * = = * , , * * * , , = * * = * , ; * * * * = , , * * * * , * * * * , * , , * * * = > = = * * = w S P ",
"O + , 2 * * * * * * * * & = , = = * = , = * * = * = = = = * = = , , , * * * , * * * * * * , , , * = = , , , = = * 0 S ~ ",
". + < < * * * * = = = * * = , , = = = = = * = = = = = = * * = * * * , * > * * * * , , , * , , * * = = , , = , , * w H [ ",
". + 2 < * & * = = = = * * = = , = = = = = * = = > = = = * * * = * * > , * > * > , , , , , , , * * = = = = = , , * 9 I | ",
"O + * ; * * * * * * * * * = = * * * * = = = , = = * * * * * = * * & * * = , , * * , , * * * * * * = = = = = , = * u I | ",
". O * * * * , * * * * * = = = * * * * * * = , = = * = = = , = * * * * * = , = = * = = = * * * * = = = = = = = = * w H | ",
". O * * * * * * * * * = * = = > = = * = , * = , , = , , , , = * = = = = * = = = = * * = * * * , , , = = * = > = = w Y | ",
". + * * & * , * * * * * = * = = , * , = = * = , , , , , , , * = = = = = = = = = = * * = , * * , , > = = * = = = * w I | ",
". O & * * * * * * * = = , * * * * = = , = * * * = = = , = = * * * * * * , = * = = = * , , , * * = , = = * * * & * w I | ",
"O + * * * * * * , = = = = * * * = * , , = * * , = , , = = = = * * * * = , = * * = * * = = = * * = = = = = * = = * i I } ",
"O O * * * * * * , , , , = = = = = * * , , , * , , , , , = = , , = * = = , = = * * * * = = * * * = = = = = = = > - 0 I | ",
"O + * = * * * , , , * = = * = > , * * , * , = , = = = = , * * = * = * * * * * * * = = = * * * * = = = = = = > = = w I | ",
"O O * * = , , , , = = * * = = > , * * * * * , * * * * * * * * * = * * * * * = * * = = * & & & * = = = = = = * * & w I | ",
". O & * = = = = * = = = = * * > = * * = > > = > * * & * = * * = = = * * * * = = = = = * & * * * = , , = = = * * & w I  .",
"O O & * * * * * * * = = = * * = = * * > > > , > , , * * = = = = > = = * * * > > = = = * = & * > , = = = = = * * * w I } ",
". + * * * = = * = = = = * & * = = * > , , : > = * * = = = = = = = = = = = > > > > = = = = = > > * * = = = * * = * 0 G ( ",
". O & & & & * & & & & & & & & & * * & & * * & & + * * * * * & & * * * * * * * * * & & & * & * & * & & & & & & & & 9 N ~ ",
"  . X O X X X X X X X O X . X X X X X X X X X X X X O O O X X O X X o o o o o X X o o X X o X X X X X X X X X X X & B ~ ",
"8 e e e e e e 8 e e 8 8 8 e e 7 7 7 8 8 7 7 % % 7 8 7 5 $ $ $ $ % 7 7 6 5 8 8 e e e r e r r e r e e 7 e e 7 7 7 7 y A E ",
"/ / / / / / / / / / ^ / / / / E E E ^ E E P K G L E L V c x c B V A G A G L / ' } } } } ' } } ' / ^ E E E E ^ E ^ ^ P P ",
"_ _ _ _ _ _ ! ! _ ! ! ! _ _ _ Q W W W W W R I F Y Y G V Z C S S D F F D I R _ ..................` Q W W W W Q Q W R F N ",
"s s s s d s a p a a s s s s s p s s a a a a i i p w 6 7 x m l h s h h s s j j k k k k k k k k k s s s s s s s s s i i i ",
"- - : : > > = = = = - = = * = - > > - = = = - = - = X @ z m h 4 1 1 1 1 1 1 1 1 1 1 1 < 1 : : 1 1 1 : > = > > - > = > > ",
"> > > > , = * * = = - = * * * = , = * * * = = = = = X @ x m s 1 < 1 1 1 < < < 1 1 < < < < 2 2 2 2 2 < * * * * * * * * = ",
"> > > = = * * * = = = * & * * = * * * * & * * * = * o # x S h 3 < : : - < , < , : , , < ; ; ; , < < , * * * * * * * * * ",
"> > * * * * * = * = * * * * * = = * * * * * * * = = o # x N d 1 < ; * * ; ; ; = , , = = * * ; ; > > > , , , = * * * * * ",
"= = * * * * = = ; = * * * = = * = = = * * * & * * * o # n D d 1 2 , * * * ; * * = = = * * * * ; > , > < , , = = * * & * ",
"* = = = * = * = = * * * * ; ; * * = = = * * * * & & X 5 n H d 3 2 < * * ; = * * * = * * * * ; ; , , > > , = = = * * * * ",
"* * * * = = = > , = ; = ; ; * * * = = * * * & * = * o # n H j 3 < ; ; * * * ; = , = * * * * * ; , , > > , , = = * * * = ",
"* * * * , = = = = = = , , = * = = * = = = * * * * * o $ B H j u : = = = * = = > , , = * & = = , , * , , , , , * * * = , ",
", , * * * = , , * ; = = = = = = = = = > = * = * > * & 5 G R d < , = = * * * = 6 = = , = = * = , , * * * * , = = * = * , ",
", , = * * * = = * * = * * , = = = * = > > > = = > * o 6 L W g > = * * * * * * * * = , = , * = , , * * * * * , > = * * * ",
", , , = * * = * * = = = = , , = * * = > > = , , > * X % L W g > = * * = * = * * & = = , , * , = , * * = , > = * * * * , ",
"* * * = = = * * = , , = = , = * * = = = = = > > * & X $ K W g > * * * * , , * * & * , , * , , , = * , , > , = * * * * = ",
"& * * * = = = = * , , , * * * * * = = = = = > = > * o $ L R a > * * * * * * * * , , * * * & & * = = = = * * * * * * = * ",
"* * * * = , = = * = , * , & * , > > = = = = = = = * X $ L R i * * * * * * * * * * , * , * * * , = = > = , * * , , , , * ",
"* , * , * = = = = * * * , * * = > > = = * = > > = * o $ L R a & & * = * * & * * * = , , , * * * = * = , , = , , , , * * ",
"= = , * , * , * = * * = , * * = , , = = = * = = = * X $ L R t * & * = = * * * = = = * = = = = = = * * , , = , , , , * * ",
"* * * * , , * = = * * = , = * = = = = = = * * * = * X $ K E i & * * * * * * * = = = * * = , = , = * * = = = , = , * * * ",
"* * = * , , * * * = = = = * * * = = = = * * * * = * o % L E t * & & * = = = = = = * * * * * = , , * = , = , , = , * , * ",
"= * , = , , * * * * = = = 5 * * = = = * , = = , > > o 6 L R t * * * * = , , = = = * , * = * = , , = = = , , , , , * , , ",
"= * * * * * * * * * = = * & * * = = = = * , , * > * o 5 L W i * * * * , , , , = = * , , , * * , , * , , = * = = * * * * ",
"* * * * * * * * * * = * * * & * = , = * , * = * * * X $ L R t * * , , , , , , * * = = , , * * * = * = * = * * = * = = * ",
"= = * * * * = = = = = * * & * * , , , , , * * * * * o 5 A L w & * = , * , * * = * * * = = * * = = * , , = * * & * , * * ",
", , * * * = , , = = = * * * * = , * , , * * * * > * o 5 B S w & * * * * * * * , , * * , * * * = , , , , * = = * * * , * ",
", , = = = , , , , * * * = = = = , * * , * * * * , * + $ n G w * * * * * * * * * * * * * , * = = , , , = * * * * , , = * ",
"* * * * = = * * * * & * * * * * & & & * & & * & * & X $ n G q & & * * * & * * * & & + * * * * * = = * & & & * * * * & * ",
"O O + + + + + O O + + + + + + O O O O O O O O O + O . # n G 6 X O O O O O O + + O O O O O O + + O O O O O O O O O O O O ",
". . X O . . X . . . O O . O . . . O . . . . . . . . . # n V 7 . . X . . . . . X . . . . . . . . .   . . . O . . . . . O "
};
