/* XPM */
static char *result[] = {
/* columns rows colors chars-per-pixel */
"60 60 253 2 ",
"   c black",
".  c #010101",
"X  c #020202",
"o  c gray1",
"O  c #040404",
"+  c gray2",
"@  c #060606",
"#  c #070707",
"$  c gray3",
"%  c #090909",
"&  c gray4",
"*  c #0B0B0B",
"=  c #0C0C0C",
"-  c gray5",
";  c #0E0E0E",
":  c gray6",
">  c #101010",
",  c #111111",
"<  c gray7",
"1  c #131313",
"2  c gray8",
"3  c #151515",
"4  c #161616",
"5  c gray9",
"6  c #181818",
"7  c #191919",
"8  c gray10",
"9  c #1B1B1B",
"0  c gray11",
"q  c #1D1D1D",
"w  c #1E1E1E",
"e  c gray12",
"r  c #202020",
"t  c gray13",
"y  c #222222",
"u  c #232323",
"i  c gray14",
"p  c #252525",
"a  c gray15",
"s  c #272727",
"d  c #282828",
"f  c gray16",
"g  c #2A2A2A",
"h  c gray17",
"j  c #2C2C2C",
"k  c #2D2D2D",
"l  c gray18",
"z  c #2F2F2F",
"x  c gray19",
"c  c #313131",
"v  c #323232",
"b  c gray20",
"n  c #343434",
"m  c #353535",
"M  c gray21",
"N  c #373737",
"B  c gray22",
"V  c #393939",
"C  c #3A3A3A",
"Z  c gray23",
"A  c #3C3C3C",
"S  c gray24",
"D  c #3E3E3E",
"F  c #3F3F3F",
"G  c gray25",
"H  c #414141",
"J  c gray26",
"K  c #434343",
"L  c #444444",
"P  c gray27",
"I  c #464646",
"U  c gray28",
"Y  c #484848",
"T  c #494949",
"R  c gray29",
"E  c #4B4B4B",
"W  c #4C4C4C",
"Q  c gray30",
"!  c #4E4E4E",
"~  c gray31",
"^  c #505050",
"/  c #515151",
"(  c gray32",
")  c #535353",
"_  c gray33",
"`  c #555555",
"'  c #565656",
"]  c gray34",
"[  c #585858",
"{  c gray35",
"}  c #5A5A5A",
"|  c #5B5B5B",
" . c gray36",
".. c #5D5D5D",
"X. c gray37",
"o. c #5F5F5F",
"O. c #606060",
"+. c gray38",
"@. c #626262",
"#. c gray39",
"$. c #646464",
"%. c #656565",
"&. c gray40",
"*. c #676767",
"=. c #686868",
"-. c DimGray",
";. c #6A6A6A",
":. c gray42",
">. c #6C6C6C",
",. c #6D6D6D",
"<. c gray43",
"1. c #6F6F6F",
"2. c gray44",
"3. c #717171",
"4. c #727272",
"5. c gray45",
"6. c #747474",
"7. c gray46",
"8. c #767676",
"9. c #777777",
"0. c gray47",
"q. c #797979",
"w. c gray48",
"e. c #7B7B7B",
"r. c #7C7C7C",
"t. c gray49",
"y. c #7E7E7E",
"u. c gray50",
"i. c #808080",
"p. c #818181",
"a. c gray51",
"s. c #838383",
"d. c #848484",
"f. c gray52",
"g. c #868686",
"h. c gray53",
"j. c #888888",
"k. c #898989",
"l. c gray54",
"z. c #8B8B8B",
"x. c gray55",
"c. c #8D8D8D",
"v. c #8E8E8E",
"b. c gray56",
"n. c #909090",
"m. c gray57",
"M. c #929292",
"N. c #939393",
"B. c gray58",
"V. c #959595",
"C. c gray59",
"Z. c #979797",
"A. c #989898",
"S. c gray60",
"D. c #9A9A9A",
"F. c #9B9B9B",
"G. c gray61",
"H. c #9D9D9D",
"J. c #9F9F9F",
"K. c #A0A0A0",
"L. c gray63",
"P. c gray64",
"I. c #A4A4A4",
"U. c #A5A5A5",
"Y. c gray65",
"T. c #A7A7A7",
"R. c gray66",
"E. c #A9A9A9",
"W. c #AAAAAA",
"Q. c gray67",
"!. c #ACACAC",
"~. c gray68",
"^. c #AEAEAE",
"/. c #AFAFAF",
"(. c gray69",
"). c #B1B1B1",
"_. c #B2B2B2",
"`. c gray70",
"'. c #B4B4B4",
"]. c gray71",
"[. c #B6B6B6",
"{. c #B7B7B7",
"}. c gray72",
"|. c #B9B9B9",
" X c gray73",
".X c #BBBBBB",
"XX c #BCBCBC",
"oX c gray74",
"OX c gray",
"+X c gray75",
"@X c #C0C0C0",
"#X c #C1C1C1",
"$X c gray76",
"%X c #C3C3C3",
"&X c gray77",
"*X c #C5C5C5",
"=X c #C6C6C6",
"-X c gray78",
";X c #C8C8C8",
":X c gray79",
">X c #CACACA",
",X c #CBCBCB",
"<X c gray80",
"1X c #CDCDCD",
"2X c #CECECE",
"3X c gray81",
"4X c #D0D0D0",
"5X c gray82",
"6X c #D2D2D2",
"7X c LightGray",
"8X c gray83",
"9X c #D5D5D5",
"0X c gray84",
"qX c #D7D7D7",
"wX c #D8D8D8",
"eX c gray85",
"rX c #DADADA",
"tX c gray86",
"yX c gainsboro",
"uX c #DDDDDD",
"iX c gray87",
"pX c #DFDFDF",
"aX c gray88",
"sX c #E1E1E1",
"dX c #E2E2E2",
"fX c gray89",
"gX c #E4E4E4",
"hX c gray90",
"jX c #E6E6E6",
"kX c gray91",
"lX c #E9E9E9",
"zX c #EAEAEA",
"xX c gray92",
"cX c #ECECEC",
"vX c gray93",
"bX c #EEEEEE",
"nX c #EFEFEF",
"mX c gray94",
"MX c #F1F1F1",
"NX c gray95",
"BX c #F3F3F3",
"VX c #F4F4F4",
"CX c gray96",
"ZX c #F6F6F6",
"AX c gray97",
"SX c #F8F8F8",
"DX c #F9F9F9",
"FX c gray98",
"GX c #FBFBFB",
"HX c gray99",
"JX c #FDFDFD",
"KX c #FEFEFE",
"LX c white",
/* pixels */
"                              X =     = t A   h.).T.Q.N.c.v.c.c.c.j.1.1.2.1.K   < : 1                                   ",
"                            o #   h 0.].#XjXeX4X6X&X+X%X[.].W.R.S.N.x.n.7.2.>. .R ^ ' 0 .   .                           ",
"                          .     4.uXLXGXvXcXgXiXhXiX9X9X=X#X}.].!.c.M.{.u.w.=.` W H M C k *                             ",
"                              0.SXGXGXHXSXbXmXDXGXDXiX0X2X.X.X).^.K.N.x.u.w.@.) Q G Z M t k ;                           ",
"                            < hXhXcXDXJXHXGXGXcX0X1XOXXX~..XU.I.m.s.9.0.&.+.#.@.Y B N f e j h   .                       ",
"                            : 0XuXlXmXDXLXNXlXdX5X5X;X*X/.,X!.!.F.c.i.q.;.@.] F G M s e u j h   .                       ",
"                              V.wXaXLXkXDXDXbXcXvXmXuXwX3X+XoX_.Q.D.x.w.1.o.R J z z i w z l q   .                       ",
"                          X     s.S.xXvXVXLXSXNXZXVXyX4X+XXX^.A.M.s.7.&.| W F M g w q y w 0   .                         ",
"                            O q     v.uX8XxXLXKXNXtX4X@XQ.Q.N.h.6.-.| I G n l x y q g 5     X                           ",
"                              . u     t.T.8XGXHXBXsX7X%X{.R.A.x.r.:. . .K F v s r s w   . X                             ",
"                                  4   A E.7XCXKXBXaX7X%X].R.S.h.w.>...` K S v y 0 k %   .                               ",
"                                  *   ) Y.yXKXHXBXaX7X%X].W.n.J.0.1.O.Q I M b h 9 j :                                   ",
"                                  -   ^ U.pXLXHXBXaX7X$X].n.Z.R.9.<.O.~ K Z v a 0 j :                                   ",
"                                  -   ^ Y.iXLXHXBXaX7X%X].U.A.c.q.1.[ ~ } N b u q j :                                   ",
"                                  -   ^ Y.pXLXHXVXsX7X%X].W.A.l.w.<. .| } M b i q j :                                   ",
"                                  -   ( R.4XvXpX4X+X).U.B.j.0.>.X.Q H J S q e r q j :                                   ",
"                                  *   W M.K.[./.).I.D.v.u.r.3.,.../ Y A l h p r t w O                                   ",
"                                  o 2   n.FXNXjXKXLXmXiX5X#X`.Y.B.j.0.#. .| Z f f 0                                     ",
"                                  3   2.0XzXLXHXHXsX3X#X).U.B.s.r.=...R E P h j w M 4   .                               ",
"                                  ,   O.%XkXKXHXNXsX>XwX XR.Z.i.f.3.O.^ K A v t q g -                                   ",
"                                  =   Q K.uXLXHXBXgX].lX+XY.A.l.3.9.o.Q P V b f q j :                                   ",
"                                  -   / T.iXLXHXBXaX>XpX.XT.A.l.r.-. .] P B v i 4 k ;                                   ",
"                                  -   ~ R.aXLXHXNXgX3X*X[.R.A.l.e.:.| } Z S C 3 7 k ;                                   ",
"                                  -   ' F.7XLXGXZX;XjX<X_.R.A.x.7.1.O.Q G A B i w j :                                   ",
"                                  -   W !.hXLXHXCX4XfX-X_.E.C.s.v.;.+.^ G S m u q j :                                   ",
"                                  -   E !.hXKXHXMXhX|.5X XT.A.f.d.>. .W E Z n y q j ;                                   ",
"                                  -   / Y.pXLXJXCXdX2X>X}.E.m.Z.0.2.O.~ R N n h 8 j :                                   ",
"                                  &   Y x.#XNXxXyX<X@X/.K.N.u.0.*.] E J N d i i r p %                                   ",
"                                    %   I l.T.I.n.c.p.r.2.<.#.o.~ J Z v u w >   O                                       ",
"                                  :   ` '.dXFXZXCXHX:X5X3XoX(.P.N.g.7.;.| W D k d M 1   .                               ",
"                                  -   / T.pXLXJXCXpXxX:X].W.A.c.e.1.#.^ I A b p q k :                                   ",
"                                  -   ^ U.iXLXJXBXaX2X;X[.T.v.V.7.:.6.T I m C a - k ;                                   ",
"                                  -   ^ Y.iXLXSXNXhX.XfXOXU.S.l.q.<.X.E P K l p e j :                                   ",
"                                  -   ^ U.iXLXhXMXcX>XXX_.!.Z.h.y.<. .! ^ C h s u d -                                   ",
"                                  -   ^ U.aXSXAXAX5X,X*X!.).Z.p.h.;.O._ T Z m y w i %                                   ",
"                                  -   ^ Y.iXLXLXCX6XmX<X'.T.S.l.6.5.X.^ G S M t q k :                                   ",
"                                  -   ^ U.iXLXmXnXFX8X@X(.R.N.b.6.9.o.E I A c f 9 j ;                                   ",
"                                  -   ~ U.uXLXvXNXfX2X X<XW.m.M.r.*. .' J D v d 0 j :                                   ",
"                                  -   / Y.iXLXKXVX9XdX#X-X!.S.h.6.5.} [ H B v f 0 g -                                   ",
"                                  *   I I.yXJXDXBXiXiX:X).L.Z.x.0.8.X.W ! V n f 7 M 3   .                               ",
"                                    ,   o.%XkXeX>X5X$X].E.s.F.q.,.| ! L G z a r r w +                                   ",
"                                  =   V +X6X/.=XOXG.j.r.>.U =.X.T Z m j 9 3 8 e r 6 o                                   ",
"                                  ;   Q  XzXzXvXSXNXhX7X=X[.R.h.b.a.4.*.[ R S p a l =                                   ",
"                                  -   ~ I.aXLXHXAXjXrX>XXX^.G.s.A.2.&.` E V A c 8 k ;                                   ",
"                                  -   ^ U.iXLXLXyXbXuX@XD.9XA.k.r.>.X.Q L Z v p 0 j :                                   ",
"                                  -   ^ Y.iXLXHXNXaX7X$X].E.C.p.N.:.| Q ! C v u q j :                                   ",
"                                  -   ^ Y.iXLXHXBXaX7X&X/.Q.A.z.w.=.| ..G A v i q j :                                   ",
"                                  -   ^ U.pXLXGXVXpX6X+XT.XXS.z.9.=.:.R U G c i q j :                                   ",
"                                  *   _ T.yXKXJXbXfXqX~.9XW.Z.l.w.<.o.E Y T l p q j :                                   ",
"                                  4   N Y.8XVXLX9XBXdX#X(.W.V.l.w.<.X.! Y V b y 9 k %   o                               ",
"                              . u X   g.`.6XGXLXgXxXtX@X{.P.U.z.e.1...Q Q S c h i s w     X X O + @ # $ % % * o         ",
"                            O q     z.dXaXlXLXKXCXeX3X@X).G.Y.h.6.=.| R D n k M s 9 g e 8                       > .     ",
"                          X     s.S.zXmXDXLXSXNXCXCXuX4X=X{.W.A.M.d.7.%.| W F m g e 0 d l q e z m V S G K P ! 4   # O   ",
"                              V.wXaXLXxXLXSXbXcXvXmXuXwX1X%XOX`.Q.C.c.w.1.o.E J z x i 0 j l x G L ! ) ` | o.&.` ~     o ",
"                            : 0XuXlXmXSXKXBXlXdX5X5X;X*X}.{.!.W.A.K.r.q.;.@.' F D n s r i h k M m V S K T E ^ O.&.` ,   ",
"                            < hXhXcXDXJXHXGXGXcX0X1XOX.X).).Y.P.b.v.7.8.*.O.=.#./ K N f e j j V B M B L Y Y ^ { ' >.i   ",
"                              0.SXGXGXHXSXbXmXDXGXDXiX0X1X+X|._./.H.M.m.y.7.9.-.I [ J n y h M N V D H T R Q ' ..=.A     ",
"                          .     4.uXLXGXvXcXgXiXhXiX9X9X-X{.3X'.W.F.S.h.g.s.-.O.W I C N d Z S S L L I Q ' } =.F e     . ",
"                            o #   h 0.].#XjXeX4X6X&X+X%X[.'.^.R.A.V.c.h.8.4.;.} W G D P ^ } | ..$.#.#.@.-.I * *   . .   ",
"                              X =     = t A   h.).T.Q.N.c.v.x.c.v.h.<.4.2.:...U D I / | %.@.= 4 5 5 5 3 4 O     O       "
};
