/* XPM */
static char *result[] = {
/* columns rows colors chars-per-pixel */
"60 60 207 2 ",
"   c #010101",
".  c #0C0202",
"X  c #020807",
"o  c #0C0807",
"O  c #020D0B",
"+  c #0D0D0C",
"@  c #140202",
"#  c #1B0303",
"$  c #1B0807",
"%  c #140B0A",
"&  c #1D0B0A",
"*  c #03110E",
"=  c #0B120F",
"-  c #15110E",
";  c #1C100F",
":  c #041412",
">  c #0B1613",
",  c #051917",
"<  c #0C1A17",
"1  c #061D1A",
"2  c #0C1D1A",
"3  c #151312",
"4  c #1C1412",
"5  c #121816",
"6  c #1B1A17",
"7  c #141D1A",
"8  c #1A1D1A",
"9  c #230404",
"0  c #2A0505",
"q  c #270807",
"w  c #2C0807",
"e  c #230D0C",
"r  c #2C0C0B",
"t  c #360A0B",
"y  c #320D0C",
"u  c #22100E",
"i  c #2D100F",
"p  c #33100F",
"a  c #241513",
"s  c #2D1311",
"d  c #231917",
"f  c #351413",
"g  c #3B1514",
"h  c #361817",
"j  c #3D1817",
"k  c #361A19",
"l  c #3C1B19",
"z  c #08221E",
"x  c #14211E",
"c  c #1B221E",
"v  c #2C201D",
"b  c #092622",
"n  c #0C2A26",
"m  c #0D2D29",
"M  c #152421",
"N  c #1C2521",
"B  c #162925",
"V  c #162E2A",
"C  c #1B2F2B",
"Z  c #0F312D",
"A  c #13322E",
"S  c #1D302B",
"D  c #113632",
"F  c #1B3531",
"G  c #133A35",
"H  c #1A3A35",
"J  c #153E39",
"K  c #1E3E39",
"L  c #222622",
"P  c #242925",
"I  c #292925",
"U  c #252E2A",
"Y  c #2B2E2A",
"T  c #302623",
"R  c #23312D",
"E  c #2B312D",
"W  c #32322D",
"Q  c #3A332F",
"!  c #243732",
"~  c #2C3531",
"^  c #243A35",
"/  c #2E3934",
"(  c #233E39",
")  c #2A3E39",
"_  c #363631",
"`  c #3A3632",
"'  c #333B36",
"]  c #3B3A35",
"[  c #353E3A",
"{  c #3D3E39",
"}  c #421413",
"|  c #4E1716",
" . c #411817",
".. c #421D1B",
"X. c #491E1C",
"o. c #531A19",
"O. c #45211E",
"+. c #4A211F",
"@. c #472220",
"#. c #4C2523",
"$. c #4F2825",
"%. c #522624",
"&. c #5A2422",
"*. c #532926",
"=. c #592927",
"-. c #562B28",
";. c #5B2D2A",
":. c #4C322E",
">. c #5F302D",
",. c #443A36",
"<. c #4C3A35",
"1. c #413E39",
"2. c #573B37",
"3. c #5B3D39",
"4. c #652725",
"5. c #632D2B",
"6. c #6A2D2B",
"7. c #742D2B",
"8. c #63312E",
"9. c #6B312E",
"0. c #73312F",
"q. c #663330",
"w. c #6B3532",
"e. c #6E3835",
"r. c #613E3A",
"t. c #733532",
"y. c #7A3633",
"u. c #733A36",
"i. c #7C3936",
"p. c #753D39",
"a. c #7B3D39",
"s. c #16413B",
"d. c #1B423C",
"f. c #23423D",
"g. c #2B423D",
"h. c #34433D",
"j. c #3B423D",
"k. c #43423D",
"l. c #4B443F",
"z. c #53423D",
"x. c #5D433E",
"c. c #63423E",
"v. c #6A433E",
"b. c #75423D",
"n. c #7B423D",
"m. c #184640",
"M. c #264842",
"N. c #2B4843",
"B. c #344640",
"V. c #3D4641",
"C. c #334A45",
"Z. c #3B4B45",
"A. c #3D524C",
"S. c #424641",
"D. c #4C4641",
"F. c #464B46",
"G. c #4C4B45",
"H. c #454F49",
"J. c #4B4E49",
"K. c #524641",
"L. c #594741",
"P. c #524C46",
"I. c #5C4A44",
"U. c #534E49",
"Y. c #5F4E48",
"T. c #47514A",
"R. c #4C514B",
"E. c #53514B",
"W. c #5C524C",
"Q. c #4A5A53",
"!. c #595F58",
"~. c #644642",
"^. c #6C4641",
"/. c #654B45",
"(. c #6B4B45",
"). c #664E48",
"_. c #764642",
"`. c #7B4641",
"'. c #734A45",
"]. c #7B4A45",
"[. c #724D48",
"{. c #7E4F4A",
"}. c #63524D",
"|. c #6C524C",
" X c #73524D",
".X c #7D544E",
"XX c #6D5E57",
"oX c #596059",
"OX c #60615A",
"+X c #73625A",
"@X c #803734",
"#X c #813A37",
"$X c #833E3A",
"%X c #8A3F3B",
"&X c #9B3B37",
"*X c #943E3A",
"=X c #9B3E39",
"-X c #84413D",
";X c #8C413D",
":X c #93413D",
">X c #844641",
",X c #8B4641",
"<X c #844944",
"1X c #8B4A45",
"2X c #864E48",
"3X c #894E49",
"4X c #924743",
/* pixels */
"W V S C S U C S R S R R W W W C V C S S S S C U R S C S R S S S U R E W W R S A V S A V A S S S S S A R R R R R U E ~ W ",
"G.<.W.l.D.D.K.U.U.z.K.K.k.k.E.K.<.K.D.K.D.K.K.U.W.W.W.W.W.K.K.D.D.K.l.k.j.U.}.W.}.W.W.}.D.L.K.z.Q ` ,.K.P.}.P.l.D.K.D._ ",
"W =X:X;X;X:X%X;X%X;X:Xy.1.j.R.=X=X%X;X%X%X:X;X;X;X%X%X*X%X;X%X:X:X%Xq.' H 2X&X:X*X:X:X:X:X;X:X;X;X;X:X;X;X$X$X$X$X$Xt.k.",
"D.*Xa.8.a.a.@.a.w.t.p.j O [ R.:Xp.@.e.8.q.8.q.>.q.p.q.u.#.p...a.-X-.q E J p.a.u.u.u.u.w.a.k a.O.a.a.u.-.p.l a.9.i.u.#.7 ",
"k.%X%.8.8.#.p.%.;.8...t 7 h.R.;Xt.q.;.e.@.$.u.;.*.w.w...;.u...e.=.j e E C.{.#Xq.%.  w.*.O.-.w.O.>.e.>.>.8.O.w.O.q.#.y P ",
"k.;X=.q.8.$.8.p.@.e.;.  , j.E.$X5.a.w.;.q.q.>.q.$.q.-.$.;.8.$.;.;...@ E J ].9.-.=.;.e.s u.O.8.q.w.-.8.*.a.=.q.*.w.;.q N ",
"k.$X5.8.q.>.e.;.-.w.@.9 < k.F.$X-X=.e.-.;.w.>.*.*.q.w...;.q.-.-.w. .& P H ^.7.w.-.8.w.#.q.#.#.u.w.>.w.>.u.-.u.#.e.8.q P ",
"D.$X;.e.;...w.$.-.;.#.0 7 ' G.a.a.%.-.@.q.$.>.q.#.$.q.*.-.w.l e.#.+.a P K _.u.;...O.q.O.-.k =.O.q.*.$.#.8.h >.>.q.;.9 N ",
"k.6.=.g ... y i # ....0 8 E D.&.X. .r y @.f ....r f ..f ..r # l f t . P ^ r.4.r j ....r %.f ..j ..r f h +.r q +.y ..0 c ",
"k.` > k 6 * * O 6 O   . 8 Y U.,.% 4 d d + @ + + @ 4 :         O O + % P G.D.e $ e ; # #   $ u u - @ % o   a d = = O + v ",
"M.A b b A ( K ( D b b m n ) ) V.' ) G G J Z b z J d.J G m b G J K ( G B.C.G M.C.N.C.A.Q.Q.H.C.C.K ^ U B g.Z J s.G G M.b ",
"4X-X>X>Xn.`.n.`.n.n.n.n.n.n.w.D.H.L.4X4X>X>X,X-X1X>X>X>X`.>X>X<X`.-X`.`.a.a.`.`.`.`.<X].].].`.`.a.v.j.g..X:X1X<X,X<X1X>X",
"-X8.w.-X5.w.p.5.q.a.;.p.w.i.g E B.|.*X=.;Xa.p.u.%.$Xp.-.;Xp.p.6.=.w.t.w.t.w.5.$X5.i.t.6.#X%Xt.%X0.e j.D >X=Xw.y.t.a.w.#X",
"-.q.-.w.+.;.O.-.w.l O.w.t.%.  x h.I.%X;.-.8.=.u.%.e...q.*.s -.9.$.w.=.5.#.u.8.l 5.8.w...;.e.O.p.f   ] C.'.%X#.8.;.@.q.q.",
"O.u.w.>.-.*.q.$.;.q.O.w.q.+.@ x V L.%X..w.-.8.>...*.>.@.w.;.l u.-.$.l -.=.e.*...*.w.$.w.O.e.w.O.j   Y K _.0.-.u.e.$.e.$.",
"e.-.8.u.-.*.-.-.q.u.l e.%.O.# x F I.%Xl p.>.q.;.l u.$.l e...>.e.$.*.>.q.%.e.s q.$.w.*.-.@.e.$.u.g o P G _.$X-.w.-.e.w.%.",
"#.u...e.@.-.8.=.8.-.O.p.p.&.@ N V.}.%X8.+.q.;.e.O.-.l -.#.l u.;.#.l >.8.#.%...p.*.#.u.+.;.u.$.t.l   7 ) ^.6.8.p.f w.;.;.",
"@.p.g l f #.=.;.-.;.9 ;.#...# N V.W.y.5.+.#.r 5.-.-.+. .;.f X.8.$.5...-.#.>.l -.-...;.i ..q.O.;.j   v Z.^.y.&...f f w.X.",
"    # # & @ @   . @ $ $ .   # W D.P.5.& h h l f h h l l k l g e 9 $ q e r # i i e 9 9 i r u r e .   Y h.2.=.  f #   p   ",
"~ D b , b D b b b b A m 1 , b H g.G d.D Z b n m m b C ~ / D D b D m , , , 1 b m m Z b , 1 m Z m Z D g.Z.C.G z n D Z Z E ",
"E..X'.r.v. X'.(.[.c./.3.3.3.2.~.~.).c.~.L.r.r.3.c.r.1.F.F.'..X^.|.(.^.^.c.^.^.[.~.|.(.3.r.~.(.~.(.(./.~.c.(.r.3.|.(.~.G.",
"W.&X%X;X%X$X%X;X;X$Xy.$Xp.$X%Xy.#Xy.#Xp.%Xi.u.%X#X4.,.F.H.*X*Xi.*X%X%X%X;X-X%X;X$Xi.t.i.i.t.i.i.t.y.#Xy.i.y.p.#X0.#X6.] ",
"l.:X&.q.q.8.q.@.$.q.w.8.;.q.a.-.-.>.>.q.e...>.p.w.# : ' H.:Xt.#.p.$.q.h 5.*.;.@.w.#.. e...%.$.w.k 8.w.$.*.8.l w.O.-.  , ",
"` %X$.w.q.>.*.*.*.8.8.8.q.;.e.l =.e.f e.-...-.;.t. .X S.!.,X$X=.q.@.q.#.-.$.e.@.e.-.w.q.h p...;.e.8.*.8.>.p.*.w.*...q L ",
"j.i.8.w.8.O.-.l %.w.;.*.*.w.>.*.@.>.;.*.p...$.t.h   * F.!.;X&.8.-.q.%...w.*.w.>.-.#.8.u.*.8.O.#.w.q.8.-.;.u.=.u.-.@.q L ",
"P.$X@.=.8.h 8.>.;.e.-.>.@.u.;.@.-.u.;.*.e.k q.#.e.X.O S.R.,Xp.-.8.=.w.;.e.#.q.&.8.#.k -.s e.h w.#.w.#.p.w.#.u #.5.%.9 L ",
"D.%X=.l &.O...*.....O.q.O.5.%...q.-.O...8.;.;.;.;.} , Y F.,Xi...w.X.8.O.;...-...8.*.=.i 8.#.#.u.# ;...8.8.;.O.>.=.%.q L ",
"j.y.9.t l ..j j  .j ....j ..j  .r 9 w 9 w f y f # @ 7 P R.y.}  .....l f j ....l ....X.y ..0 g ..i h f f g ..w g =...# L ",
"j.{ P 1 1 z z M M N N 7 7 1 , 1 , , b U C B 1 b 1 M 2 [ S.k., 1 1 2 1 7 x < O O O O , U V R 1 X O : z z 1 1 1 1 c x 2 M ",
"H.T.T.R.F.j./ ' ' ~ Y [ J.oXOXU.R.J.V.S.V.[ / U ' / U ' J.V.V.V.H./ R.F.J.[ ~ / R / j.R.R.V.j.' R [ S.j.J.j.S.F.j.j.R./ ",
"$X$X$Xa.-X$X-X$X-Xy.z.~ F.,X%X%X%X,X;X,X;Xa.$X$X-Xa.$Xa.$X$Xa.$X$X$X$X-X#X3.F.R.`.=X;X;X;X;X,X;X,X:X-Xa.-X$X$Xn.-Xa.-X$X",
"e.t.w.t.e.$Xu.n.$Xp 1 k.D %Xt.f q...t.;.%.q.;.u.$.q.8.f w.e.r u.8.#.q.5.=.  1.C.<Xi.l w...u.8.f w.@.=.;.-.;.5.w.%.w.O.9.",
"w.O.>.q.8.>.-.w.#.0 O j.F.;Xp u.$.;.w.;.e.$.;.q.>.@.*.-.q.-.$.w.h w.8.%.5.  D.A.<Xi.@ w.O.e.*.#.w.w.q.#.-.q.$.>.-.>.8.l ",
";.%.e.8.>.w.*.w.>.9 : j.H ;X%.8.e.$.e.;.%.q.;.q.q.@.w.k ;.>.w.*.$.w.q.q.&.O k.oX3Xt.=.w.l u.*.u.>.e.8.q.>.-.>.w.e.$.q.*.",
"p.-.$.u.q.u.;.8.-.0 L k.T.;X5.O.q.#.u.@...q.;.>.*.-.e.l >.8.s q.q.l q.e. .* S.Q.2X6.8.u.-.>.#.w.8.l q.8.>.q.>.w.-.#.$.-.",
"q.-.8.w.%.w.;.w.8.0 L k.h.-Xg a.;.s u.q.-.>.w.q.u.-.-.k $.w.O.p.;.q.e.;.5.O ] Z.>X#Xl e.e.-.p.>.>.q.w.q.q.>.>.w.8.8.n.#.",
"w g &.%.r O.%.r j 0 8 j.h.9.} 8.8...q.g =.-.%.@.*.O.#...q.%.j &.j 5.-.f w   _ Z.n.7.w ;.j 6.;.&.5.;.=.=.-.&.#.%.#.5.8.j ",
"  .   O 4 3 O ; - 4 - k.J.c.k   . # . s d k d 4   @ $ &   $ & O @ 3 & d . 6 ] j.2.f a . a 3 4 T - % # @ @ # e % . +   * ",
"S.G J n D z Z G A n b Z C.m.n z b D D G G d.C.d.D m b z f.( ' ] j.b Z m A Z J M.m.s.m d.G N.A.Q.f.J G n D J d.G f.Z h.E ",
"k.1X2X`.<X>X<X<X`.p.b.b.b.n.b.b.`._._._._.`.]._._.b.b.b.].b.[ H.l.,X1X>X>X>X<X<X<X2Xb.]._.]..X].].`._._._._.].`.].b.'.k.",
"D.*Xy.p.p.p.t.-Xt.w.a.w.i.8.9.p.5.p.9.y.t.9.9.9.9.$Xw.5.p.| E B./.=X$Xy.p.y.y.0.p.t.p.&.y.0.o.t.5.9.i.5.t.t.t.5.6.$Xo.E ",
"D.;X;.f 9.l @.w.-.#.e.l =.$ q.q.s w.$ q.8.l ;.;.8.8.8.l 9.  M h.Y.%X$.-.h O.h o %.@ >.@.w.e >.O.w.l %.%.w.O.-.e...-.. 2 ",
"k.;X+.@.w.l -.f q.%.8.8.@.=.p...q.>.#.s w.*.#.*.#...=.;.%.# x F L.%X-.w.@ #.w.>.e q.>.s w.e.O.w.l -.8.-.q.8.-.;.l w.y M ",
"W ;X8.;.e...-.w.$.;.u.-.e.l ;.w.#.w.s w.8...u.;.8.u.u.%.#.# x A L.;X-.*.u.k w.*.>.-.q.*.*.l *.*.w.$.q.8.8.8.l w.8.p.f N ",
"E.;X9.h w.8.-.8.>.*.q.#.w.#.t.l ..e.f 8.8.w.;.@.8.*.-.#.u.q O F }.:X;.$ 8.8.O.h w.O.w.O.q.h u.l ;.-.e...w.8.;.w.O.#.0 L ",
"` ;X8.+.w...=.#.w.=.w.5.;.;.u.w...5.$.# 5.-.-.8.;.;.w.%.u.0 O ! }.#X#.9.+.+.8.;.l u.;.p 8.#.=.#.w.-.q.=.w.;.=.w.#.w.f N ",
"U.9.0 g p f f h f g 9 . @ # @ @ 9 @ # # 9 # # # @ # # # # @ c S.U.9.0 g g g j f g f r r r w q # # # # & # & e & 9 . @ c ",
"Z J b z Z b V b m b n ( ) ^ n b , M x S b z : : : b m z 1 b b h.F ( m b n n n b 1 1 b ! ' ' M 1 m b b 1 O O 1 b m n V n ",
"|.2.|.x.}.I.}.x.I.K.).XX+X}.~.}.<.E.F.W.(.c.2.z.L.~. X)./.<.I.L.).<.}.x.I.I.I./.I.I./.}.E.G.G.(././.L.3.:.@.:.<.L.I.}.~.",
"$X;X$X:X%Xy.i.a.#X$Xi.@Xy.#X#X#X5.j.Z.^.&X;X;X:X-X%X%X;X;X$Xt.$Xt.$Xi.$Xi.i.#Xp.#Xi.y.6.] A W.=X;X$X;X;X-X$X$Xa.#Xp.#Xi.",
"$.%.u w.$.#.O.;.k p.>.*.e 8.l 8.  N g./.$X-.8.q.k $.  $.*.;.*.;.. w.8.@.$.#.=.f 8.#.+.  P V.W.;X@.e -.#.O.=.*.-.>.$.q.& ",
"p.O.%.8.8.>.%.*.#.q.s -.=.#.*.=.. Y g.^.$X@.-.>.;.f l -.-.;.>.q.-.-.8.l >.#.@.O.w...8.t M j.W.$Xf u.h 8.e.w.k e.O.8.-.h ",
"q.-.$ 8.#.$.8.k w.w.s >.>.e u.X.  P g.c.;X..  w.%.;.#.u.@.e.e p.-.*.-.;.q.$.8.@.#.;.O.@ 7 j.}.%X=.@.k q.q.$.>.*.q.a h w.",
"O.w.$.w.h 8.@.u.-.w.q.$ #.8.9.#.. Y g.c.$Xl q.;.-.e.k 8.$.-.l u.k w.k ;.#.-.8.a O.8.+.@ N V.U.;X*.*.q.e.$.-.>.#.=.w...a.",
"k p.-.*.*.p.O.8.-.#.#.-.#.p.O.q.  I g.^.p.s a.-.;.#.%.;.$ ;.h ;.O.p.s -.8.l 8.O.8.#.%.0 x / L.%Xf p.O.l >.q.*.-.  %.w.@.",
"-.e.#.w.f 8.-.#.-.w...u.$.=.5.5.. I Z.'.%X*.i u.-.q.$.;...p.#.w.l 8.9...p.;.;.;.8.#.8.y x V K.%Xf O.*.-.>.8.e.>.q...p.O.",
"g g w X.0 w p y t X.t j t 0 j 0 # I V.~.7.    p 0  .w t y  .y X.w y  .0  . .p p g p p 0 = j.W.t.  @ g  .p j  .f X.f  .f ",
"5 : 8 : 8 6 6 5 < : 5 : : 6 > < 3 8 D.G.Q 1 L , > * 5 5 5 : 5 : 8 5 : 8 *   X X   6 X     _ D.,.O 8 : : < X         : 5 ",
"W D.W G.L Y ` k.1.k.1.G.U.W { k.1.k.E.G.G.E.D.k.1.G.D.{ k.P.k.1.E k.k.1.W I W W I W 1.` I ` P.j.` ` P.{ k.1.] Y W k.1.1.",
"U.E.U.E.U.U.U.E.U.U.U.U.E.P.U.U.P.E.U.P.U.U.U.P.U.U.E.U.U.U.U.U.U.U.E.P.U.U.U.U.U.E.U.P.U.U.U.U.U.U.U.U.U.U.E.U.U.U.U.U."
};
