/* XPM */
static char *adde3134fa1f482ec9d29090d1e56f92[] = {
/* columns rows colors chars-per-pixel */
"60 60 108 2 ",
"   c #252519",
".  c #2E2C20",
"X  c #2F3227",
"o  c #313325",
"O  c #393627",
"+  c #383927",
"@  c #35372A",
"#  c #39362A",
"$  c #3C3A2C",
"%  c #3E3D31",
"&  c #403E31",
"*  c #3F4135",
"=  c #444235",
"-  c #4A4635",
";  c #4D4937",
":  c #454539",
">  c #494639",
",  c #47493C",
"<  c #4C4A3C",
"1  c #534E3E",
"2  c #53513F",
"3  c #4D4D41",
"4  c #514E42",
"5  c #4F5044",
"6  c #4F5249",
"7  c #545245",
"8  c #5A5545",
"9  c #5C5947",
"0  c #555549",
"q  c #5A564A",
"w  c #57584A",
"e  c #5C5A4D",
"r  c #5D5D52",
"t  c #605947",
"y  c #615D4D",
"u  c #615E52",
"i  c #5F6053",
"p  c #65604D",
"a  c #646255",
"s  c #6A6656",
"d  c #676856",
"f  c #6C6956",
"g  c #656559",
"h  c #696659",
"j  c #67685C",
"k  c #6C6A5D",
"l  c #706756",
"z  c #716957",
"x  c #716D5D",
"c  c #73705E",
"v  c #79725F",
"b  c #6E6D62",
"n  c #716E61",
"m  c #6F7164",
"M  c #747264",
"N  c #7A7565",
"B  c #7C7966",
"V  c #75756A",
"C  c #797669",
"Z  c #76786C",
"A  c #7C7A6D",
"S  c #7D7D71",
"D  c #827D6E",
"F  c #817F72",
"G  c #7E8174",
"H  c #7E8478",
"J  c #84816E",
"K  c #838275",
"L  c #898575",
"P  c #8C8976",
"I  c #858579",
"U  c #898679",
"Y  c #86897C",
"T  c #8B8A7D",
"R  c #918D7E",
"E  c #97907E",
"W  c #878880",
"Q  c #8D8D82",
"!  c #918E82",
"~  c #8E9185",
"^  c #8F958B",
"/  c #939285",
"(  c #9A9684",
")  c #9E9986",
"_  c #959589",
"`  c #99968A",
"'  c #96998C",
"]  c #9B9A8D",
"[  c #9D9D92",
"{  c #A19D8D",
"}  c #A19E92",
"|  c #9FA193",
" . c #A3A295",
".. c #A8A596",
"X. c #A4A599",
"o. c #A9A79A",
"O. c #A7A89B",
"+. c #ABA99D",
"@. c #B1AC9D",
"#. c #A7AAA1",
"$. c #AEAEA2",
"%. c #B1AEA1",
"&. c #ACB0A2",
"*. c #B3B2A5",
"=. c #B8B5A6",
"-. c #B4B4A9",
";. c #B9BAAE",
":. c #BEBFB1",
/* pixels */
"~ Y I ~ _ _ I 0 F ! D D F ` D D u ` E D D D l F D C b F ` F b } { 2 * o . G O.H G w d d G G m i G Y G c m k G d 0 < k o.",
"| [ W W ~ I b 6 q q u u D U F F D D U U F D n F n F F D / / u 4 * w c G G p i i p G R H H ' R | Y | G * * d ' ' ! %.` T ",
"M I I Z n g r A D u ! E D F F D F ! E U ! U D D n ! n u / n q n w c A Z E R P ' H G E | R ' ' E R E Y d , m ( H F ` ! g ",
"I W S S Q ` U _ D u F ! F D D u l E ! U U ` W ! I W n u %.U & F _ Y P P E | | E P d G | | ' ' E R ^ | &.R P G Y ! T } n ",
"/ / _ ] _ ! A F F F F F D D D q q U F ` U F ! ` ! _ F q } ! 0 U  .Q K G K Q G S H H G P { E G G G G H R | O.Y Y ` ` T n ",
"[ / ! } ! I V M U ! U ! D D D u > F D D E U ` ! U ` M u } ! V F Y K K T K Q S S T P G G | ' G G H { Y d H ( G H _ U 4 h ",
"_ _ ` #.! / ! ! } U U U D D l 4 & D D D ! ! ` F _ h q u ` / u A F S T Y V G S K E d H G R E Y P G P ' H c c G P / l 3 n ",
"F ] } } W _ } ! ! ` U l F D l l l U ! U n t h u u & u F 0 n g F X.] ] Y ~  .] #.' G H G H R G H E P R E ' G w 9 > # n V ",
"W ] } _ T / R ` T F M l u l U U / ( F x C D ! k n u n q F } n F ~ ^ V g r V b u d M G G M i a M d i i d 5 : e r i s V L ",
"F ! { ! / _ ! ! M q > h D D } ! L 7 C t k F C { ! / 4 q u u F ] u b F V S V g & 0 G P ~ K Z d A d i w 5 i w x m : k T _ ",
"F ^ / } `  . .O.{ #.M l D u h q O < s M a L T V q u q q & u Q } A W [ -.^ V ! } ~ ~ _ P B H ~ ~ ^ G G d V m ' Y A / _ T ",
"F b F F U K B i u y q A n 8 q h M s U U x D ..V u F W ` _ C n / ' W Q [ W 7 _ _ ' ] K P G ' _ / T H R H T S Q K L U L T ",
"b e T M 5 M M K & 0 M F ! %./ n T { { A n M u q h n u h b > u M A S I ~ Z r ] Y G Z T I / F K m k G Y G A K W n Z K F F ",
"Z b &._ |  . .R h { %.` } ` h D 8 N M ( x U R F C h F F F F _ F M ~ Q [ A r j / / M Z K Z Z S M G G T ' / ] [ Q / ! W Z ",
"I S ' _ _ K w 7 } } ! F F u 4 q < D ( T F T ] V F C D { o._ } }  .[ I Y _ < * e / G Z V W S F ! G G G / | ~ S ~ ] Q F F ",
"K g X.~ / G + G %.o.F F C & q n s D D ] ! l _ F ! F F W ! ! ] ] Q [ S / I j / H I A U _ Q F F Q J G G V b b M H A F U I ",
"r 3 A ] F I 4 F %.! / n 4 q T T C L D L E D x x L R F R ( ( A M A / S / Q Z } [ W S W W Q / W I I C _ F a S ' I I ^ ^ W ",
": w W I n { k k W F C l 3 u u b R D J D ( N D M C R F F U F C U / I V W _ 3 S [ S S A Q F Q W I I k C b Z S m M C V j 0 ",
"S W Q F A ..t s F ( ` u u e n ] ! D D L N N U a R D F ! Q K T / _ / X._ W 6 n F F F ` _ I ! F ^ h 4 I Q W Z b Q _ _ W F ",
"] X.! V b ! q C } F F F Q F u h l F N P R ] K k D D C F K K L / / [ W S h 3 b S F W F g 0 6 V S q n *.U U ' [ Q W ! _ [ ",
"Q S G Y F ..x k } D D ! U U u u n M h M U A g u A F b j r j r < g 6 : & : 6 : > 3 3 g 3 6 g b b 7 b ] !  .' / S I Q ! ^ ",
"K A ` -.o.@.n n F n F ! T ! F V N u M h e r C Z F n b S e g b g 6 F W ^ ^ ' [ W I ^ ^ ^ ' X.#.[ 4 u } ] } ! / S ! [ ] Q ",
"V Z A K R ` u q & t l y 4 u u u n C ! G V A S K 0 r g b r g W -.#.X.[ [ [ [ ^ ^ ~ Q ^ Q W ] W ~ h u ` F S S I V K Q U I ",
"A Z K K F R u 3 l F F D A L F U F n }  .o.$. .[ V M S F m Z ! Y W ^ I W W W W W ^ ~ Q W ' ^ ~ ' b n [ F W F V S S A V S ",
"K K G A { c - R E { ..@.@.=.T } ^ b } ] F b ` ] X.} } #.S r ' [ ' ^ [ [ ^ ^ #._ ^ [ X.| [ [ [ #.Q 6 ] ~ I F V F ! W V V ",
"K A V R N - 8 ] E E E { { R L ] F V M ^ V V W / _ ^ ^ [ m u W g V V V V W W b r r V G V Z S S V n 4 F S W V u h h h C F ",
"a f V B - ; c ) D L E @.R R ` ] A A F W / / _ _ ^ V n _ _ u r 6 q r b g h r V V r 6 b b b Z F A S b u g 7 r 4 q t q b u ",
"P | T J e - B L P L D z z P D ] b A :.' } ' ` A A U ! F W u ! #.-.W V } _ ' ^ [ H g g 0 m [ W _ ^ I F A A F Q F h N W F ",
"G M E K J c c N D D D D f f p A V > V [ W F ! W ! W } F W b ` } W ! F h F F F V g W ^ F r ` ! ! A Q W A F F U ` n U ` ` ",
"J G P B f 2 x v z 1 ; 1 2 e K s 7 I r ` ` W ! F / n n W F 4 u ` ! ` I b n n I ! [ ^ ` } b V } ! ! ^ ^ ] } } ] } F A n C ",
"y = 2 9 p f p p v J z 1 1 1 k d e e K V h F D D F n u u r & > n ! ! ! h 0 > F W _ } F 6 q u Q U Q F ! F k r F F u u t u ",
"< P / E P { J f J { { P s v M U c d 0 & r u q & 7 h F F F / I > 6 r 4 0 6 3 3 u 0 u > # 4 h 4 , : r u b r 7 q > & 3 n u ",
"i *.&...T { O.G E ) | B p d c c x c k M P P v 1 t D F x 0 % X > 6 j V V I S [ b 3 : 3 b S A A S K W H / Q ~ ! Y F u > & ",
"a A M x x d y x G c c f c x x f l z D K F D l ; 1 & - & 6 C ^ W V W ^ ^ ~ H ^ ^ r 6 b Q ^ I S I K S H S S W U Q ] u 4 e ",
"2 = 7 a f M M A 9 ; 2 d v v J J D D D J P D E t t ; F U ` ` $.F V Q W W Q S V #.V 0 W _ U F U W Q S K S I _ ! K V r < > ",
"Z T T T ] E U B G P ) ) P x c c z D P J z D D D l 8 ( { F W _ _ r V ` ^ S V I } r r Q Q ` ! F F _ / Q ` ` Q I q # n F l ",
"L ~ F D R F T U G H ( R P G f c J J E P E D l E l & x F ( F ` / 6 V T ` I Q } ! F > 4 $ 4 u n u a b u a r q u & n W F A ",
"K C A A D A U U E k P E T E E P E P p P P z l D l D l { ! F ! F 4 _ U F M M A Q A h u & r u e u h x h h h S F A V C A ! ",
"/ / F a V K J E G 9 P ) G G P J v z E E L D t - 8 t t n F ! } F u F D F V C U ! F q u u M C F M M K F T ! } ! T _ ! F Q ",
"A K F Z K R L V f d c G E ( ( E D P @.E D 8 ; z z D D y q M I / 6 u q u n 3 > 4 7 7 n P R M L D d K h A C F U I U ` F A ",
"! I U U F k 8 7 f G A ( J A k L k b u & 1 t U ! F V F _ S 6 g 0 t u 4 & & & > y } ! F } =.%.! R D A e u C F T K Q ` K k ",
"n e 4 4 a u < C J d i 2 - ; a A F U F n A ` } I F C ` [ V g S W u u x D n D C u } } U } F F D D g x U Q A F ! / K / K n ",
"4 4 M K K / ` ! R x f f y U E ` / A F ! T F S S V _ ^ W b H V _ t s M F } } F & n ! } F L M n ! g U } [ ] ` U K F V r a ",
"!  .U F K A T ! J | ] A - L T G V C F F F Q U I W W W [ b 6 ! U n D 4 D } F n & & F C F R F F U k A U ! F n n e e u 5 * ",
"a ..} / _ F F ! ] ! n u V ( ` C D C I D F h u h o.W F D & n } C n M k t > q & e q : , 3 e V j a S M b Z h 0 q r , & $ > ",
"$ u U T A U U h n u l F T x T ` F n ! ` ! q 4 F W ` ! & 4 n D D l D M n U k h b n A ! [ } I I U ' Q W Q } W 7 > e u h A ",
"M 7 7 u h V V n u n n F A A F L q 7 l q u q q q n h > h N 4 7 q u ( @.( } V h u Q } %.+.Q / b | #.' [ ' ] ] n r u 7 4 C ",
"] Q A A V b F ] Q W _ } I F F U D 7 q u h F U F h q h F N N n t 9 s P T F Q S F %.} [ Y ` +.S A W W m I  .Q n n A u u _ ",
"~ G ^ ~ ^ H G ~ ~ ~ W S [ X.^ S W I ! ` W ` X.h q W I W ] ] U u d A E T f 2 c K ! u q M o.} } ` _ Q W | X.' j Z j Z ~ ' ",
"~ G H H H G G G W V W W W W W S F F U F n W _ r W $.! F F ! n u ; 8 v E P ' 7 c u 4 7 F } ` o.#.#.} -.| | ^ 5 Y G I ` ~ ",
"G H W H H H Y ^ W S ^ W G W Z V W U W F C W W u I ! ! / ] U 7 4 M = = i d L w - e k k } } } } ] ' X.' | O.Z @ V ~ S Q H ",
"H ~ ~ H H H H H I W ~ F W ^ r j C W F C F F r r F 0 k } ` D n ! x k d p a 2 e 7 q < n ..} %.} _ [ [ ^ $.Z : w 0 Y H Q W ",
"^ ~ T G H Y ~ T S ^ ^ I ~ ' r Z F h M C n / F q u 0 u n q > F } ~ ` ' Q j G ] ] n b C u G _ X.;.;. .[ I < 0 Z e F Q I W ",
"' Y T m G H Y H b b b m V b 0 Q n 0 n _ W > . q M n u & & u } I I I / Z 0 I +. .Y / S V   : w w 6 r 3 % 5 i i 5 b j 5 b ",
"i w w , i b j w 3 u b r r S S K ` ! ! ! ! C n W } } ` W u r / W ~ I m X r H ! S V Z [ &.Y < * 2 w j j A S b Z w r 3 % r ",
"d G G Z G G G j S _ Q ^ [ [ W K ! ! ! F ! ` ` [ { W ` } 6 6 / F ~ ~ W % r W I A K ` ' |  .I < G ` [ [ |  .| -.| 0 b S Z ",
"H R ^ ' ^ R ^ G G H J Y ~ ~ / j 0 M ] ! ! ! ! U D l u q : W W W Z Y #.6 b Y m W [ | S b m ~ i _ | / / ~ Q ' ` [ K V +.Q ",
"Y Y Y R ^ Y H d G G Y T ~ ~ ~ j 0 0 u D U F u 4 & & & u F V A ! ~ ^ ^ @ r W S W ' | S b K T e | ` Y Q _ / ! I W [ Z K I ",
"Y G H T Y Y Y w Z Y ~ R ~ ~ ^ b u s D U U F l l l n q h ! F W } ^ ^ V * i S b b W V b H [ Z 0 [ [ ` ' Q ~ ' ' ' [ S j S ",
"Y G H T R E R w G Y ~ ~ Y Y ' m 7 D ` ! l u l F U U U n I W _ [ ^ ^ m X r _ ^ ' [ W m b k V j a M Q [ / ~ / S w , 0 h / "
};
