/* XPM */
static char *a22a448ce4254cf6f4eebfd097894102[] = {
/* columns rows colors chars-per-pixel */
"69 69 209 2 ",
"   c #252525",
".  c gray17",
"X  c #2C2C2C",
"o  c gray18",
"O  c #2F2F2F",
"+  c gray19",
"@  c #313131",
"#  c #323232",
"$  c gray20",
"%  c #343434",
"&  c #353535",
"*  c gray21",
"=  c #373737",
"-  c gray22",
";  c #3A3A3A",
":  c gray23",
">  c #3C3C3C",
",  c #3F3F3F",
"<  c #414141",
"1  c #444444",
"2  c #464646",
"3  c #4B4B4B",
"4  c #4C4C4C",
"5  c gray30",
"6  c #4E4E4E",
"7  c gray31",
"8  c #5D4045",
"9  c #505050",
"0  c #515151",
"q  c gray32",
"w  c #535353",
"e  c gray33",
"r  c #565656",
"t  c gray35",
"y  c #5A5A5A",
"u  c #5B5B5B",
"i  c #5D5D5D",
"p  c gray37",
"a  c #606060",
"s  c #626262",
"d  c gray39",
"f  c #646464",
"g  c #656565",
"h  c gray40",
"j  c #676767",
"k  c #686868",
"l  c DimGray",
"z  c #6A6A6A",
"x  c gray42",
"c  c #6C6C6C",
"v  c #6D6D6D",
"b  c gray43",
"n  c #6F6F6F",
"m  c gray44",
"M  c #727272",
"N  c gray45",
"B  c gray46",
"V  c #767676",
"C  c gray47",
"Z  c gray48",
"A  c #7B7B7B",
"S  c #7C7C7C",
"D  c gray49",
"F  c #7E7E7E",
"G  c #808080",
"H  c gray51",
"J  c #838383",
"K  c #848484",
"L  c gray52",
"P  c #868686",
"I  c gray53",
"U  c #888888",
"Y  c #898989",
"T  c #8E8E8E",
"R  c gray56",
"E  c #909090",
"W  c gray57",
"Q  c #929292",
"!  c #939393",
"~  c gray58",
"^  c #959595",
"/  c gray59",
"(  c #979797",
")  c #989898",
"_  c gray60",
"`  c #9A9A9A",
"'  c #9B9B9B",
"]  c gray61",
"[  c gray62",
"{  c #A0A0A0",
"}  c gray63",
"|  c #A2A2A2",
" . c gray64",
".. c #A4A4A4",
"X. c gray69",
"o. c gray70",
"O. c #B4B4B4",
"+. c gray71",
"@. c #B6B6B6",
"#. c gray72",
"$. c #BCBCBC",
"%. c gray",
"&. c gray76",
"*. c #C5C5C5",
"=. c #C6C6C6",
"-. c gray78",
";. c #C8C8C8",
":. c gray79",
">. c #CBCBCB",
",. c gray80",
"<. c #CDCDCD",
"1. c #CECECE",
"2. c #DFC4C9",
"3. c #D2D2D2",
"4. c LightGray",
"5. c gray84",
"6. c #D8D8D8",
"7. c #DADADA",
"8. c gray86",
"9. c gainsboro",
"0. c gray87",
"q. c #E7CCD1",
"w. c #EAD7D9",
"e. c #ECD9DB",
"r. c gray88",
"t. c #E2E2E2",
"y. c gray90",
"u. c #E6E6E6",
"i. c #E7E7E7",
"p. c #E9E9E9",
"a. c gray92",
"s. c #ECECEC",
"d. c gray93",
"f. c #EEEEEE",
"g. c #EFEFEF",
"h. c #FBE2E6",
"j. c gray94",
"k. c #F1F1F1",
"l. c #F3F3F3",
"z. c #F6F5F3",
"x. c #F4F4F4",
"c. c gray96",
"v. c #F6F6F6",
"b. c gray97",
"n. c #FFF1F2",
"m. c #FFF5F5",
"M. c #F4F9F5",
"N. c #F6FBF7",
"B. c #FCF8F5",
"V. c #FDF9F6",
"C. c #FFF9F7",
"Z. c #FFF7F8",
"A. c #F7FCF8",
"S. c #F3FFFE",
"D. c #F4FFFE",
"F. c #F8F8F8",
"G. c #F9F9F9",
"H. c #FBFAF8",
"J. c #FBFBF9",
"K. c #F9FBFA",
"L. c gray98",
"P. c #FBFBFB",
"I. c #FFF8F8",
"U. c #FFF9F8",
"Y. c #FFF9F9",
"T. c #FFFBFA",
"R. c #FFFBFB",
"E. c #FBFDFA",
"W. c #FCFCFA",
"Q. c #FDFDFB",
"!. c #FFFCFA",
"~. c #FFFCFB",
"^. c #FFFDFB",
"/. c #FCFEFB",
"(. c #FFFEFB",
"). c #FFFFFB",
"_. c #FFFBFC",
"`. c #FFF8FE",
"'. c #FFF9FE",
"]. c #FFFAFE",
"[. c #FFFBFE",
"{. c #FBFDFC",
"}. c #FBFFFC",
"|. c #F8FFFE",
" X c #FAFFFE",
".X c #FBFFFE",
"XX c gray99",
"oX c #FDFDFD",
"OX c #FFFCFC",
"+X c #FFFDFC",
"@X c #FEFCFD",
"#X c #FFFCFD",
"$X c #FFFDFD",
"%X c #FDFFFC",
"&X c #FCFFFD",
"*X c #FEFEFC",
"=X c #FFFEFC",
"-X c #FEFFFD",
";X c #FFFFFD",
":X c #FFFCFE",
">X c #FFFDFE",
",X c #FFFCFF",
"<X c #FFFDFF",
"1X c #FDFFFE",
"2X c #FDFEFF",
"3X c #FEFEFE",
"4X c #FFFEFF",
"5X c #FEFFFF",
"6X c white",
/* pixels */
"6X6X6X6X6X6XP.6X6X6X6X6X6X6X6X6X6X6X6X6X6X6X6X6X6X6X6X6X6X6X6X6X6X6X6X6X6X6X6X6X6X6X6X6X6X6X6X6X6X6X6X6X6X6X6X6X6X6X6X6X6X6X6X6X6X6X6X6X6X",
"6X6X6X6X6X6X6X6X6X6X6X6X6X6X6X6X6X6X6X6X6X6X6X6X6X6X6X6X6X6X6X6X6X6X6X6X6X6X6X6X6X6X6X6X6X6X6X6X6X6X6X6X6X6X6X6X6X6X6X6X6X6X6X6X6X6X6X6X6X",
"6X6X6X6X6X6X6XP.6X6X6X6X6X6X6X6X6X6X6X6X6X6X6X6X6X6X6X6X6X6X6X6X6X6X6X6X6X6X6X6X6X6X6X6X6X6X6X6X6X6X6X6X6X6X6X6X6X6X6X6X6X6X6X6X6X6X6X6X6X",
"6X6X6X6XP.6X6X6X6X6X6X6X6X6X6X6X6X6X6X6X6X6X6X6X6X6X6X6X6X6X6X6X6X6X6X6X6X6X6X6X6X6X6X6X6X6X6X6X6X6X6X6X6X6X6X6X6X6X6X6X6X6X6X6X6X6X6X6X6X",
"6X6X6X6X6XP.6X6X6X6X6X6X6X6X6X6X6X6X6X6X6X6X6X6X6X6X6X6X6X6X6X6X6X6X6X6X6X6X6X6X6X6X6X6X6X6X6X6X6X6X6X6X6X6X6X6X6X6X6X6X6X6X6X6X6X6X6X6X6X",
"6X6X6XP.6X6XP.6X6X6X6X6X6X6X6X6X6X6X6X6X6X6X6X6X6X6X6X6X6X6X6X6X6X6X6X6X6X6X6X6X6X6X6X6X6X6X6X6X6X6X6X6X6X6X6X6X6X6X6X6X6X6X6X6X6X6X6X6X6X",
"6X6XP.6X6X6X6X6X6X6X6X6X6X6X6X6X6X6X6X6X6X6X6X6X6X6X6X6X6X6X6X6X6X6X6X6X6X6X6X6X6X6X6X6X6X6X6X6X6X6X6X6X6X6X6X6X6X6X6X6X6X6X6X6X6X6X6X6X6X",
"6X6X6X6XP.6XP.6X6X6X6X6X6X6X6X6X6X6X6X6X6X6X6X6X6X6X6X6X6X6X6X6X6X6X6X6X6X6X6X6X6X6X6X6X6X6X6X6X6X6X6X6X6X6X6X6X6X6X6X6X6X6X6X6X6X6X6X6X6X",
"6X6X6X6X6X6X6X6X6X6XP.6X6X6X6X6X6XP.6XP.6X6X6XP.6X6XP.6X6X6X6X6X6X6X6X6X6X6X6X6X6X6XP.6X6XP.6XP.6X6X6X6X6X6X6X6X6X6X6XP.6XP.6X6X6X6X6X6X_.",
"6X6X6X6X6X6X6X6X6X6X6X6X6X6X6X6X6XP.6X6X6Xv.6X6XP.6X6X6X6XP.6XP.v.6X6X6XP.6X6X6XP.6X6Xv.P.6X6X6X6X6X6XP.6X6X6XP.P.6X6X6X6X6XP.6X{._.{.6X{.",
"6X6X6X6X6X6X6X6X6X6X6X6X6X6X6XP.v.6XP.P.6X6X6Xv.6XP.v.6X6X6X6X6XP.6XP.v.v.6X6XP.P.6X6X6X6XP.l.6XP.6X6X6XP.6X6X6X6XP.6XP.6X6X6X6X6X6X6X{.6X",
"6X6X6X6X6X6X6X6X6XP.6XP.6X6X6X6X6X6XP.6XP.6XP.6Xv.6X6XP.P.6X6X6X6XP.P.6X6X6X6X6X6Xl.P.P.6X6X6X6X6X6X6XP.6X6X6XP.6X6X6X6XP.6XP.6X{.6X6X_.6X",
"6X6X6X6X6X6X6X6X6X6X6X6X6X6X6XP.6XP.6X6Xv.6XP.P.6XP.P.P.6Xl.&.[ I S B B I [ ;.g.6X6X6Xv.6X6XP.6XP.6XP.6X6X6X6X6X6X6X6X6X6XP.6X6X6X6X6X6X6X",
"6X6X6X6X6X6X6X6X6X6XP.6X6X6X6X6Xv.6X6XP.6X6XP.6X6X6Xt.^ q < q c G R ' ^ G x 5 ; q R g.6Xv.P.6XP.6X6X6X6X6X6X6X6XP.6XP.6X6X6XP.6X{._.{.6X{.",
"6X6X6X6X6X6X6X6X6X6X6XP.6X6X6XP.P.6XP.6X6Xv.6XP.;.x ; x &.l.v.6X6X6X6XP.6X6X6Xv.@.c ; i 5.6X6Xv.P.6XP.6X6XP.6X6X6X6X6XP.6X6X6X6X6X6X6X{.6X",
"6X6X6X6X6X6X6X6X6XP.6X6XP.6X6X6X6XP.6X6Xl.6Xv.j ; ^ v.6XP.6XP.v.P.P.P.P.P.P.6X6X6XP.P.' # j l.6XP.P.6XP.6XP.6X6XP.6X6X6XP.6XP.6X{.6X6X_.6X",
"6X6X6X6X6X6X6X6X6X6XP.6X6X6X6XP.6X6XP.v.6X#.  Y 6XP.6XP.6X6X6XP.6X6X6XXX6XXXXX6XP.P.6Xl.6XI X O.6X6XP.6X6X6X6XP.6X6XP.6X6X6X6X6X6X{.6X{.6X",
"6X6X6X6X6X6X6X6XP.P.6XP.v.6X6X6Xv.P.6X6XZ O 9.6X6X6X6X6XP.6X6X6XXXXX6X6X6X6X6X6X6X6Xb.6X6XP.7.* Z 6X6X6XP.6X6X6X6XP.6X6X6XP.6XP.6X6X6X_.6X",
"6X6X6X6X6X6X6X6X6XP.6XP.6X6Xv.P.6X6XP.i q 6X6X6X6XP.6X6X6XP.6XP.6X6XXX6XXX6X6XXXP.P.6XP.6XP.6XP.q y P.6XP.6XP.6X6X6X6X6X6X6X6X6X6X6X6X6X6X",
"6X6X6X6X6X6X6X6X6X6XP.P.6XP.6X6Xl.6Xa i 6XP.P.P.6X6XP.6X6X6X6X6X6XXX6X6XXX6X6XXXP.6X6Xv.6XP.P.6X6Xy a P.6X6X6XP.6X6X6X6X6X6X6X6X6X6X6X6X6X",
"6X6X6X6X6X6X6X6X6XP.6X6Xv.6X6Xl.6XS 3 6X6XP.P.6X6XP.6XP.6X6X6X6X6X6XXX6XXX6X6X6X6X6XP.6X6XXX6XXXv.6Xq S 6Xv.6Xv.6X6X6X6X6X6X6X6X6X6X6X6X6X",
"6X6X6X6X6X6X6X6X6XP.6XP.6X6Xv.6Xo.O 6XP.P.6X6XP.6X6X6X6XP.6XP.6XXX6XXX6X6X6XXX6XXXP.6X6Xb.XX6X6X6X6XP.# @.6Xg.6X6X6X6X6X6X6X6X6X6X6X6X6X6X",
"6X6X6X6X6X6X6X6X6X6X6Xv.6XP.6Xl.O 7.P.6X6X6Xv.6X6XP.6X6X6X6X6XP.6XXX6X6X6XXX6X6X6X6XP.P.6X6X6XP.P.P.6X7.# p.6XP.6X6X6X6X6X6X6X6X6X6X6X6X6X",
"6X6X6X6X6X6X6X6X6XP.6X6X6Xv.6Xj I P.P.6X6X6X6XP.6X6XP.6XP.6X6X6X6X6X6XXX6XXX6X6X6Xv.6X6XP.6XP.6X6X6Xv.6XI x 6X6X6X6X6X6X6X6X6X6X6X6X6X6X6X",
"6X6X6X6X6X6X6X6X6X6XP.P.6X6X,.; 6X6X6XP.6X6XP.P.6XP.6X6X6XP.6XP.XX6X6XXX6X6X6XXX6X6XXXXX6X6XXX6XP.6XP.6X6X* 3.6XP.6XP.6X6X6X6X6X6X6X6X6X6X",
"6X6X6X6X6X6X6X6X6X6XP.P.P.6Xx Q 6X6X6X6X6XP.6X6X6X6XP.6X6X6X6X6XXX6X6XXX6XXX6X6XXX6X6X6X6XXX6X6X6X6XP.6XP.^ j 6X6X6X6X6X6XP.6X6X6X6X6X6X6X",
"6X6X6X6X6X6X6X6X6XP.6X6X6Xy.; v.P.6X6XP.6X6X6XP.6X6X6X6X6XP.6X6X6X6X6X6XXX6XXX6XXX6X6X6X6X6XXXXX6Xv.6X6X6Xv.; y.6XP.6XP.P.6X6X6X6X6X6X6X6X",
"6X6X6X6X6X6X6X6X6X6X6Xv.6X' j 6X6XP.6X6X6X6X6X6XP.6XP.6X6X6XP.6X6XXXXX6X6X6XXX6X6X6XXXXXXX6X6X6X6XP.6X6XP.6Xc ^ 6Xv.6X6X6X6X6XP.6X6X6X6X6X",
"6X6X6X6X6X6X6X6X6XP.6Xv.6Xq %.P.P.6X6X6X6X6X6X6X6X6X6XP.6X6X6XP.6XXX6X{.6X6XXX6XXX6X6X6X6XXXXX6X6X6X6XP.P.v.%.5 6XP.6XP.6X6X6X6X6X6X6X6X6X",
"6X6X6X6X6X6X6X6X6XP.P.6Xl.> v.6X6XP.P.6XP.6X6X6XP.6X6X6XP.6X6X6X6X6X6X6XXX6XXX6X6X6XXX6X6X6X6X6X6XP.v.6X6X6Xg.1 g.6X6XP.6X6X6X6X6X6X6X6X6X",
"6X6X6X6X6X6X6X6X6X6XP.6X;.3 6XP.6X6X6X6X6XP.6X6X6XP.6XP.6XP.6XP.XX6X6X_.{.6X6X6X{.6XXX6XXX6X6X6X6X6X6XP.P.6Xv.q *.6XP.6X6X6XP.6X6X6X6X6X6X",
"6X6X6X6X6X6X6X6X6X6X6XP...x 6Xv.P.6XP.6X6X6X6XP.6X6X6X6X6X6X6X6X~.~.6X~.6X_.6XXX6X6X_.6XXX6X_.6XP.6X6XP.6Xv.6Xx { 6X6X6X6X6XP.6X6X6X6X6X6X",
"6X6X6X6X6X6X6X6X6XP.P.6XG I 6Xv.{._.{.6X{._.{.6X{._.{.6X{.6X{.6X~.~.~.~.6X~.6X~.6X~.6X6X{._._._.6Xb.6XXXP.P.6XI I 6XP.6X6XP.6X6X6X6X6X6X6X",
"6X6X6X6X6X6X6X6X6X6XF.6XS Q 6XP.6X6X6X6X6X6X6X6X6X6X6X6X6X6X6X~.U.V.e.n.U.~.E.E.6X_._.6X{.{.6X_.6XP.6XXX6XP.6XR Z 6XP.6X6X6X6XP.6X6X6X6X6X",
"6X6X6X6X6X6X6X6X{.6XP._.Z ' 6XP.6X6X{.6X6X6X{.6X6X6X{.6X6X6X6X~.U.w.8 2.U.B.{.E.6XU.6X{.S.D.6X_.6XXX6XXX6XP.6X^ B 6XP.6X6X6X6X6X6X6X6X6X6X",
"6X6X6X6X6X6X6X6XP.6XP.6XZ ^ 6Xv.6X{._.6X6X{._.6X6X{._.6X6XE.6X~.6Xm.q.h.~.~.M.6XU.6X6X{.S.S.6X6X6XXX6XXX6Xv.6XQ B 6Xv.6XP.6X6X6X6X6X6X6X6X",
"6X6X6X6X6X6X6X6X6XXXP.6XI G 6XP.6X6X6X6X{.6X6X6X6X6X6X6XXX6X6X6X~.~.m.V.6Xx.A.{.6X~.{.{.{.{._.6X_.6X6XXX6Xb.6XI I 6XP.6XP.6XP.6X6X6X6X6X6X",
"6X6X6X6X6X6X6X6X6XP.P.6X{ j 6X6X_.{.6X{._.6X6X{._.{.6X{.6X6XXX_.~.6XV.~.B.6X6XE.~.6X6X6X6X6X_._._.{.6XXX6XXX6Xc { P.P.6X6X6XP.6X6X6X6X6X6X",
"6X6X6X6X6X6X6X6X6X6XP.6X;.q XX{.{.6X6X_.{.6X{._.{.6X6X_.6XXX6XXX6XB.{.A.A.E.6X~.{.6X{.6X_._._.6X6XXX6XXX6X6Xb.w ,.6XP.6X6X6X6X6X6X6X6X6X6X",
"6X6X6X6X6X6X6X6XP.6XP.6Xa.1 v.P.6X6X6X{.6X6X6X6X6X6X6X{.6XXX6X6X~.6XA.{.E.6XE.~.6X{.6X_.6X_.6X6X6X6X6XP.XX6Xl., g.6X6X6X6X6X6X6X6X6X6X6X6X",
"6X6X6X6X6X6X6X6X_.6X6XP.6Xr O.6X6Xx.6XXX6X6X6X6X6X6XXXXX6X6XXX6X~.~.~.~.6XE.6X{.6X6X{.{.{.{.{.6X6Xv.6X6XP.6X@.r P.6X6X6X6X6X6X6X6X6X6X6X6X",
"6X6X6X6X6X6X6X6X6XXX{.b.6XQ N F.l.6X6XP.6XF.6XXXXX6X6X6X6XXX6X6X~.6X~.6XU.6X{.6X{.6X{.{.{.D.{.{.6X6Xv.6X6X6XN Q P.6X6X6X6X6X6X6X6X6X6X6X6X",
"6X6X6X6X6X6X6X6X6X6X6X6X6Xy.> F.6XF.P.P.XX6XP.6XXX6X6X6X6X6XXXXX6X6X6X6X6X6X6X6X6X{.6X{.6X{.{.{.6X6X6X6XP.P.* y.6X6XP.6X6X6X6X6X6X6X6X6X6X",
"6X6X6X6X6X6X6X6XP.P.6X6Xx.6Xa ] 6X6XP.6X6XXX6XXX6X6XXXXXXX6X6X6X_.{.{.{.{.6X_.6X{.{.6X6X_.6X6X{.6Xv.6X6X6X^ a 6X6X6X6X6X6X6X6X6X6X6X6X6X6X",
"6X6X6X6X6X6X6X6X6X6X6X6X6X6X3.O {.P.6X6X6Xv.6XP.XX6X6X6X6X6X6X_.6X{.S.S.{.6X_._.{.D.6X6X`.`.6X{.6X6X6Xv.6X* 5.6XP.6X6X6X6X6X6X6X6X6X6X6X6X",
"6X6X6X6X6X6X6X6X6X6Xv.XXP.P.6Xx I 6XP.P.F.6XXX6X6X6XXX6XXX6X{.6X6X{.S.S.{._._._.6XD.{.6X`._.6X{.P.P.P.6XS c 6XP.6X6X6X6X6X6X6X6X6X6X6X6X6X",
"6X6X6X6X6X6X6X6X6X6X6X6XF.6X6Xg.. 7.6XP.6X6XF.6X6XXX6XXX6X6X{.6X6X_.{.6X6X6X_._.6X{.{.6X_.6X{.{.6Xv.6X7.O l.6X6X6X6X6X6X6X6X6X6X6X6X6X6X6X",
"6X6X6X6X6X6X6X6X6XP.P.6X6XP.b.6XO.# {.6XP.6X_.6X6XXX6X6X6XXX6X_._._.6X6X6X_._.6X{.{.{.6X{.{.{.{.F.6X6X* o.6XP.6X6X6X6X6X6X6X6X6X6X6X6X6X6X",
"6X6X6X6X6X6X6X6X6X6X{.6X6X6X{.XX6XZ q P.6X6X6XP.6X6XP.6X6X6X6XP.6X6X6XXX_.P._.6X{.6XP.6XP.6X6XP.6X6X3 J P.P.6X6X6X6X6X6X6X6X6X6X6X6X6X6X6X",
"6X6X6X6X6X6X6X6X6X6X6X6X_.{.XX6X6X6Xa i 6X6Xv.6XP.P.P.6X6XP.P.6XP.XX6X6X6X6X6X6XP.6XP.b.6X6Xx.6Xv.y f v.{.6X6XP.6X6X6X6X6X6X6X6X6X6X6X6X6X",
"6X6X6X6X6X6X6X6X6X6X6X6X6X6X_.{.6XP.6Xa 5 6XP.P.6X6X6XP.6XXX6X6X6X6X6XXX{.6XP.6X6XP.6XP.{.{.6X6Xq x {.6X6Xv.6X6X6X6X6X6X6X6X6X6X6X6X6X6X6X",
"6X6X6X6X6X6X6X6X6X{._.{._.{.6X6XP.6XXXP.G # 9.6X6Xv.XX6X6X6XP.P.P.6XXX6X6X6X6X6XP.6X6X6XP.6X7.# Z l.6X6X6X6X_.{.6X6X6X6X6X6X6X6X6X6X6X6X6X",
"6X6X6X6X6X6X6X6X6X6X6X6X{.6X6XXX6X6XP.P.6XX.O G 6X6X6Xv.P.P.6X6X6X6X6X6X6X6X6XP.XXb.b.P.6XS O o.6XP.6X6X6X6XP.6X6X6X6X6X6X6X6X6X6X6X6X6X6X",
"6X6X6X6X6X6X6X6X6X{._.{.6X6X{.6XP.P.6X6Xg.6Xg.j * Q v.6X6X6X6Xv.b.P.F.v.v.P.6XP.6XXX6X] O f v.6XP.P.6XF.6X6X6XP.6X6X6X6X6X6X6X6X6X6X6X6X6X",
"6X6X6X6X6X6X6X6X6X6X6X6X6X6X6X6X6XP.P.6X6Xv.6X6X3.j ; j *.g.v.6XP.6X6X6X6X6X6Xb.@.n $ a 6.6X6Xb.6XP.6XP.6X6XF.6X6X6X6X6X6X6X6X6X6X6X6X6X6X",
"6X6X6X6X6X6X6X6X6X6X6X{.6X6X6X_.XX6X6X6X6X6Xb.XX6XP.y.R q < q j I Q ^ Q G x 9 > w ) y.6X6X6X{.6X6X6X6XP.6X6X6X6X6X6X6X6X6X6X6X6X6X6X6X6X6X",
"6X6X6X6X6X6X6X6X{.6X{.6X6X6X{.6X6X6X6X6X6X6X6X6XXXP.XX6X6Xg.-.{ I Z B Z I { ,.l.{.{.6X{.6X6X6X6X6X6X6X6X6X6X6X6X6X6X6X6X6X6X6X6X6X6X6X6X6X",
"6X6X6X6X6X6X6X6X_.6X_.{.6X6X_.6XXX6X6X6X6X6X6X6X6X6X6Xv.v.6X6X6X6X6X6X6X6XF.P.6X_.6X6X_.6X6X6X6X6X6X6X6X6X6X6X6X6X6X6X6X6X6X6X6X6X6X6X6X6X",
"6X6X6X6X6X6X6X6X{.6XXX6X{.6X{.6XXX6X6X6X6X6X6X6XXX6X6X6X6X6X6X6XF.F.P.P.XX6X6X6X{.6X6X6X6X6X6X6X6X6X6X6X6X6X6X6X6X6X6X6X6X6X6X6X6X6X6X6X6X",
"6X6X6X6X6X6X6X6X6X6XXX6X6X6X6X6X6X6X6X6X6X6X6X6X6X6X6X6X6X6XXXv.6X6X6X_.XXXX6X{.6X6X6X6X6X6X6X6X6X6X6X6X6X6X6X6X6X6X6X6X6X6X6X6X6X6X6X6X6X",
"6X6X6X6X6X6X6X6X_.6XXX6X6X6X{.6X6XXX6X6X6X6X6X6X6X6X6XP.XX6X6X6XP.6X6X6X6X6X6XXX6X6X6X6X6X6X6X6X6X6X6X6X6X6X6X6X6X6X6X6X6X6X6X6X6X6X6X6X6X",
"6X6X6X6X6X6X6X6X{.6XXX6X_.6X6X6X6XXX6X6X6X6X6X6X6X6X6X6X6X6XXXXXXX6X6X6XXX6X6X6X6X6X6X6X6X6X6X6X6X6X6X6X6X6X6X6X6X6X6X6X6X6X6X6X6X6X6X6X6X",
"6X6X6X6X6X6X6X6X6X6X{.6X{.6X{.6X6X6X6X6X6X6X6X6X6X6XXX6X6X6X6X6X6X6X6X6X6X6X6X6X6X6X6X6X6X6X6X6X6X6X6X6X6X6X6X6X6X6X6X6X6X6X6X6X6X6X6X6X6X",
"6X6X6X6X6X6X6X6X{.6XXX6X6X6X_.6XXX6X6X6X6X6X6X6X6X6X6X6X6XP.6X6X6X6XXX6X6X6X6X6X6X6X6X6X6X6X6X6X6X6X6X6X6X6X6X6X6X6X6X6X6X6X6X6X6X6X6X6X6X",
"6X6X6X6X6X6X6X6X6X{._.6X6X6X6X6X_.6X6X6X6X6X6X6X6X6X6X6X6X6X6X6X6X6X6X6X6X6X6X6X6X6X6X6X6X6X6X6X6X6X6X6X6X6X6X6X6X6X6X6X6X6X6X6X6X6X6X6X6X",
"6X6X6X6X6X6X6X6X6X6X{.6X{.6X{.6X{.6X6X6X6X6X6X6X6X6X6X6X6X6X6X6X6X6X6X6X6X6X6X6X6X6X6X6X6X6X6X6X6X6X6X6X6X6X6X6X6X6X6X6X6X6X6X6X6X6X6X6X6X",
"6X6X6X6X6X6X6X6X_.{.XX6X6X6X_.6X6X{.6X6X6X6X6X6X6X6X6X6X6X6X6X6X6X6X6X6X6X6X6X6X6X6X6X6X6X6X6X6X6X6X6X6X6X6X6X6X6X6X6X6X6X6X6X6X6X6X6X6X6X",
"6X6X6X6X6X6X6X6X6X6XXX6X6X6X{.6X6X6X6X6X6X6X6X6X6X6X6X6X6X6X6X6X6X6X6X6X6X6X6X6X6X6X6X6X6X6X6X6X6X6X6X6X6X6X6X6X6X6X6X6X6X6X6X6X6X6X6X6X6X",
"6X6X6X6X6X6X6X6X{.6X{.6X_.6X6X6X_.{.6X6X6X6X6X6X6X6X6X6X6X6X6X6X6X6X6X6X6X6X6X6X6X6X6X6X6X6X6X6X6X6X6X6X6X6X6X6X6X6X6X6X6X6X6X6X6X6X6X6X6X"
};
